<?xml version="1.0" encoding="UTF-8" standalone="no"?>
<!-- Created with Inkscape (http://www.inkscape.org/) -->

<svg
   width="36.074615mm"
   height="50.326515mm"
   viewBox="0 0 36.074615 50.326515"
   version="1.1"
   id="svg1"
   xml:space="preserve"
   inkscape:version="1.4.3 (0d15f75042, 2025-12-25)"
   sodipodi:docname="onion.svg"
   xmlns:inkscape="http://www.inkscape.org/namespaces/inkscape"
   xmlns:sodipodi="http://sodipodi.sourceforge.net/DTD/sodipodi-0.dtd"
   xmlns="http://www.w3.org/2000/svg"
   xmlns:svg="http://www.w3.org/2000/svg"><sodipodi:namedview
     id="namedview1"
     pagecolor="#505050"
     bordercolor="#ffffff"
     borderopacity="1"
     inkscape:showpageshadow="0"
     inkscape:pageopacity="0"
     inkscape:pagecheckerboard="1"
     inkscape:deskcolor="#505050"
     inkscape:document-units="mm"
     inkscape:zoom="1.6415271"
     inkscape:cx="57.872939"
     inkscape:cy="89.855352"
     inkscape:window-width="1712"
     inkscape:window-height="894"
     inkscape:window-x="0"
     inkscape:window-y="0"
     inkscape:window-maximized="1"
     inkscape:current-layer="layer1" /><defs
     id="defs1"><inkscape:path-effect
       effect="bspline"
       id="path-effect12"
       is_visible="true"
       lpeversion="1.3"
       weight="33.333333"
       steps="2"
       helper_size="0"
       apply_no_weight="true"
       apply_with_weight="true"
       only_selected="false"
       uniform="false" /><inkscape:path-effect
       effect="bspline"
       id="path-effect26"
       is_visible="true"
       lpeversion="1.3"
       weight="33.333333"
       steps="2"
       helper_size="0"
       apply_no_weight="true"
       apply_with_weight="true"
       only_selected="false"
       uniform="false" /><inkscape:path-effect
       effect="bspline"
       id="path-effect25"
       is_visible="true"
       lpeversion="1.3"
       weight="33.333333"
       steps="2"
       helper_size="0"
       apply_no_weight="true"
       apply_with_weight="true"
       only_selected="false"
       uniform="false" /><inkscape:path-effect
       effect="bspline"
       id="path-effect24"
       is_visible="true"
       lpeversion="1.3"
       weight="33.333333"
       steps="2"
       helper_size="0"
       apply_no_weight="true"
       apply_with_weight="true"
       only_selected="false"
       uniform="false" /><inkscape:path-effect
       effect="bspline"
       id="path-effect23"
       is_visible="true"
       lpeversion="1.3"
       weight="33.333333"
       steps="2"
       helper_size="0"
       apply_no_weight="true"
       apply_with_weight="true"
       only_selected="false"
       uniform="false" /><inkscape:path-effect
       effect="bspline"
       id="path-effect22"
       is_visible="true"
       lpeversion="1.3"
       weight="33.333333"
       steps="2"
       helper_size="0"
       apply_no_weight="true"
       apply_with_weight="true"
       only_selected="false"
       uniform="false" /><inkscape:path-effect
       effect="bspline"
       id="path-effect21"
       is_visible="true"
       lpeversion="1.3"
       weight="33.333333"
       steps="2"
       helper_size="0"
       apply_no_weight="true"
       apply_with_weight="true"
       only_selected="false"
       uniform="false" /><inkscape:path-effect
       effect="bspline"
       id="path-effect20"
       is_visible="true"
       lpeversion="1.3"
       weight="33.333333"
       steps="2"
       helper_size="0"
       apply_no_weight="true"
       apply_with_weight="true"
       only_selected="false"
       uniform="false" /><inkscape:path-effect
       effect="bspline"
       id="path-effect19"
       is_visible="true"
       lpeversion="1.3"
       weight="33.333333"
       steps="2"
       helper_size="0"
       apply_no_weight="true"
       apply_with_weight="true"
       only_selected="false"
       uniform="false" /><inkscape:path-effect
       effect="bspline"
       id="path-effect18"
       is_visible="true"
       lpeversion="1.3"
       weight="33.333333"
       steps="2"
       helper_size="0"
       apply_no_weight="true"
       apply_with_weight="true"
       only_selected="false"
       uniform="false" /><inkscape:path-effect
       effect="bspline"
       id="path-effect17"
       is_visible="true"
       lpeversion="1.3"
       weight="33.333333"
       steps="2"
       helper_size="0"
       apply_no_weight="true"
       apply_with_weight="true"
       only_selected="false"
       uniform="false" /><inkscape:path-effect
       effect="bspline"
       id="path-effect11"
       is_visible="true"
       lpeversion="1.3"
       weight="33.333333"
       steps="2"
       helper_size="0"
       apply_no_weight="true"
       apply_with_weight="true"
       only_selected="false"
       uniform="false" /><inkscape:path-effect
       effect="bspline"
       id="path-effect10"
       is_visible="true"
       lpeversion="1.3"
       weight="33.333333"
       steps="2"
       helper_size="0"
       apply_no_weight="true"
       apply_with_weight="true"
       only_selected="false"
       uniform="false" /><inkscape:path-effect
       effect="bspline"
       id="path-effect9"
       is_visible="true"
       lpeversion="1.3"
       weight="33.333333"
       steps="2"
       helper_size="0"
       apply_no_weight="true"
       apply_with_weight="true"
       only_selected="false"
       uniform="false" /><inkscape:path-effect
       effect="bspline"
       id="path-effect8"
       is_visible="true"
       lpeversion="1.3"
       weight="33.333333"
       steps="2"
       helper_size="0"
       apply_no_weight="true"
       apply_with_weight="true"
       only_selected="false"
       uniform="false" /><inkscape:path-effect
       effect="bspline"
       id="path-effect7"
       is_visible="true"
       lpeversion="1.3"
       weight="33.333333"
       steps="2"
       helper_size="0"
       apply_no_weight="true"
       apply_with_weight="true"
       only_selected="false"
       uniform="false" /><inkscape:path-effect
       effect="bspline"
       id="path-effect6"
       is_visible="true"
       lpeversion="1.3"
       weight="33.333333"
       steps="2"
       helper_size="0"
       apply_no_weight="true"
       apply_with_weight="true"
       only_selected="false"
       uniform="false" /><inkscape:path-effect
       effect="bspline"
       id="path-effect5"
       is_visible="true"
       lpeversion="1.3"
       weight="33.333333"
       steps="2"
       helper_size="0"
       apply_no_weight="true"
       apply_with_weight="true"
       only_selected="false"
       uniform="false" /><inkscape:path-effect
       effect="bspline"
       id="path-effect4"
       is_visible="true"
       lpeversion="1.3"
       weight="33.333333"
       steps="2"
       helper_size="0"
       apply_no_weight="true"
       apply_with_weight="true"
       only_selected="false"
       uniform="false" /><inkscape:path-effect
       effect="bspline"
       id="path-effect3"
       is_visible="true"
       lpeversion="1.3"
       weight="33.333333"
       steps="2"
       helper_size="0"
       apply_no_weight="true"
       apply_with_weight="true"
       only_selected="false"
       uniform="false" /><inkscape:path-effect
       effect="bspline"
       id="path-effect2"
       is_visible="true"
       lpeversion="1.3"
       weight="33.333333"
       steps="2"
       helper_size="0"
       apply_no_weight="true"
       apply_with_weight="true"
       only_selected="false"
       uniform="false" /><inkscape:path-effect
       effect="bspline"
       id="path-effect1"
       is_visible="true"
       lpeversion="1.3"
       weight="33.333333"
       steps="2"
       helper_size="0"
       apply_no_weight="true"
       apply_with_weight="true"
       only_selected="false"
       uniform="false" /><inkscape:path-effect
       effect="bspline"
       id="path-effect2-5"
       is_visible="true"
       lpeversion="1.3"
       weight="33.333333"
       steps="2"
       helper_size="0"
       apply_no_weight="true"
       apply_with_weight="true"
       only_selected="false"
       uniform="false" /><inkscape:path-effect
       effect="bspline"
       id="path-effect2-7"
       is_visible="true"
       lpeversion="1.3"
       weight="33.333333"
       steps="2"
       helper_size="0"
       apply_no_weight="true"
       apply_with_weight="true"
       only_selected="false"
       uniform="false" /><inkscape:path-effect
       effect="bspline"
       id="path-effect1-0"
       is_visible="true"
       lpeversion="1.3"
       weight="33.333333"
       steps="2"
       helper_size="0"
       apply_no_weight="true"
       apply_with_weight="true"
       only_selected="false"
       uniform="false" /><inkscape:path-effect
       effect="bspline"
       id="path-effect12-7"
       is_visible="true"
       lpeversion="1.3"
       weight="33.333333"
       steps="2"
       helper_size="0"
       apply_no_weight="true"
       apply_with_weight="true"
       only_selected="false"
       uniform="false" /><inkscape:path-effect
       effect="bspline"
       id="path-effect12-7-9"
       is_visible="true"
       lpeversion="1.3"
       weight="33.333333"
       steps="2"
       helper_size="0"
       apply_no_weight="true"
       apply_with_weight="true"
       only_selected="false"
       uniform="false" /></defs><g
     inkscape:label="Layer 1"
     inkscape:groupmode="layer"
     id="layer1"
     transform="translate(3.2233688,-17.79372)"><g
       id="g12"
       transform="translate(38.81571,-2.0777266)"><path
         style="opacity:1;fill:#826076;fill-opacity:1;stroke:#46333f;stroke-width:1.22037;stroke-dasharray:none;stroke-opacity:1"
         d="m 77.193449,36.952211 c -2.792601,-0.294213 -5.48924,-1.28057 -8.950017,-1.791204 -3.460777,-0.510634 -7.685336,-0.545505 -12.600304,2.357303 -4.914968,2.902808 -10.519764,8.742952 -11.872532,16.430478 -1.352767,7.687526 1.546654,17.221525 6.964372,23.835406 5.417719,6.613881 13.353092,10.306859 19.561313,12.487267 6.20822,2.180407 10.688638,2.847999 13.416205,3.4442 2.727567,0.5962 3.702155,1.120977 4.882941,0.933544 1.180786,-0.187433 2.567698,-1.087051 6.98764,-1.919714 4.419943,-0.832663 11.872443,-1.598309 16.873423,-4.976151 5.00099,-3.377842 7.54985,-9.367475 9.08897,-15.683 1.53911,-6.315525 2.0683,-12.95618 1.39688,-17.63389 -0.67142,-4.67771 -2.54335,-7.391909 -5.22243,-10.046193 -2.67908,-2.654284 -6.16507,-5.248389 -9.39869,-6.374236 -3.23362,-1.125847 -6.21464,-0.783409 -8.863986,-0.254541 -2.649345,0.528868 -4.966704,1.244104 -7.193799,1.056676 -2.227095,-0.187427 -4.363666,-1.277497 -6.876298,-1.623585 -2.512632,-0.346089 -5.401087,0.05185 -8.193688,-0.24236 z"
         id="path1"
         inkscape:path-effect="#path-effect1"
         inkscape:original-d="m 77.097539,37.644374 c -2.696691,-0.986376 -5.39333,-1.972733 -8.090075,-2.959128 -4.224809,-0.03487 -8.449368,-0.06974 -12.674177,-0.104617 -5.605127,5.840489 -11.209923,11.680633 -16.81505,17.521121 2.899592,9.534564 5.799013,19.068563 8.698605,28.603127 7.935845,3.693198 15.871218,7.386176 23.807062,11.079373 4.480597,0.667618 8.961015,1.33521 13.441525,2.002815 0.974625,0.524795 1.949212,1.049573 2.923818,1.57436 1.386967,-0.899652 2.773879,-1.799269 4.160817,-2.698906 7.452946,-0.765691 14.905446,-1.531337 22.358396,-2.297029 2.54901,-5.989995 5.09788,-11.979626 7.6469,-17.96962 0.52921,-6.641055 1.05839,-13.28171 1.58761,-19.922763 -1.87205,-2.714364 -3.74398,-5.428564 -5.61602,-8.142929 -3.48612,-2.594207 -6.97211,-5.188308 -10.45816,-7.782462 -2.98119,0.342458 -5.96221,0.684896 -8.943407,1.027354 -2.317494,0.715278 -4.634853,1.430514 -6.952348,2.145792 -2.136695,-1.090134 -4.273266,-2.180203 -6.409962,-3.270337 -2.888568,0.397957 -5.777023,0.795899 -8.665534,1.193849 z"
         transform="matrix(0.36523918,0,0,0.37992205,-54.018806,19.148657)"
         sodipodi:nodetypes="cccccccccccccccccc" /><path
         style="fill:#46333f;fill-opacity:1;stroke:#46333f;stroke-width:0.1;stroke-opacity:1"
         d="m -26.229879,33.827608 c 0.675277,-0.204153 0.675277,-0.204153 0.675277,-0.204153 -0.942246,1.664635 -1.884493,3.32927 -2.010119,5.543576 -0.125626,2.214306 0.565341,4.978173 1.272033,7.066832 0.706692,2.088659 1.429067,3.502002 2.057236,4.789749 0.628169,1.287747 1.162098,2.449829 0.596734,2.072911 -0.565365,-0.376917 -2.229968,-2.29278 -3.564826,-4.2087 -1.334858,-1.91592 -2.3399,-3.831781 -2.968066,-5.747701 -0.628167,-1.91592 -0.879428,-3.831782 -0.722381,-5.213751 0.157046,-1.38197 0.722382,-2.229973 1.680346,-2.858142 0.957964,-0.628169 2.30849,-1.036467 2.983766,-1.240621 z"
         id="path12"
         inkscape:path-effect="#path-effect12"
         inkscape:original-d="m -25.554602,33.623455 c 0,0 0,0 0,0 0,0 -1.884493,3.32927 -2.826739,4.993905 0.690994,2.763977 1.381961,5.527844 2.072942,8.291766 0.722403,1.413396 1.444777,2.826739 2.167166,4.240106 0.53395,1.162127 1.067879,2.324209 1.601818,3.486312 -1.664668,-1.915938 -3.32927,-3.831802 -4.993904,-5.7477 -1.005083,-1.915941 -2.010125,-3.831802 -3.015187,-5.747703 -0.251272,-1.915939 -0.502531,-3.831801 -0.753798,-5.747701 0.565359,-0.848039 1.130694,-1.696043 1.696043,-2.544065 1.35058,-0.408315 2.701106,-0.816613 4.051659,-1.22492 z"
         transform="translate(0.28267385,1.22492)" /><path
         style="fill:#46333f;fill-opacity:1;stroke:#46333f;stroke-width:0.1;stroke-opacity:1"
         d="m -26.229879,33.827608 c 0.675277,-0.204153 0.675277,-0.204153 0.675277,-0.204153 -0.942246,1.664635 -1.884493,3.32927 -2.010119,5.543576 -0.125626,2.214306 0.565341,4.978173 1.272033,7.066832 0.706692,2.088659 1.429067,3.502002 2.057236,4.789749 0.628169,1.287747 1.162098,2.449829 0.596734,2.072911 -0.565365,-0.376917 -2.229968,-2.29278 -3.564826,-4.2087 -1.334858,-1.91592 -2.3399,-3.831781 -2.968066,-5.747701 -0.628167,-1.91592 -0.879428,-3.831782 -0.722381,-5.213751 0.157046,-1.38197 0.722382,-2.229973 1.680346,-2.858142 0.957964,-0.628169 2.30849,-1.036467 2.983766,-1.240621 z"
         id="path12-5"
         inkscape:path-effect="#path-effect12-7"
         inkscape:original-d="m -25.554602,33.623455 c 0,0 0,0 0,0 0,0 -1.884493,3.32927 -2.826739,4.993905 0.690994,2.763977 1.381961,5.527844 2.072942,8.291766 0.722403,1.413396 1.444777,2.826739 2.167166,4.240106 0.53395,1.162127 1.067879,2.324209 1.601818,3.486312 -1.664668,-1.915938 -3.32927,-3.831802 -4.993904,-5.7477 -1.005083,-1.915941 -2.010125,-3.831802 -3.015187,-5.747703 -0.251272,-1.915939 -0.502531,-3.831801 -0.753798,-5.747701 0.565359,-0.848039 1.130694,-1.696043 1.696043,-2.544065 1.35058,-0.408315 2.701106,-0.816613 4.051659,-1.22492 z"
         transform="matrix(-1,0,0,1,-45.734815,0.96294308)" /><path
         style="fill:#46333f;fill-opacity:1;stroke:#46333f;stroke-width:0.1;stroke-opacity:1"
         d="m -26.229879,33.827608 c 0.675277,-0.204153 0.675277,-0.204153 0.675277,-0.204153 -0.942246,1.664635 -1.884493,3.32927 -2.010119,5.543576 -0.125626,2.214306 0.565341,4.978173 1.272033,7.066832 0.706692,2.088659 1.429067,3.502002 2.057236,4.789749 0.628169,1.287747 1.162098,2.449829 0.596734,2.072911 -0.565365,-0.376917 -2.229968,-2.29278 -3.564826,-4.2087 -1.334858,-1.91592 -2.3399,-3.831781 -2.968066,-5.747701 -0.628167,-1.91592 -0.879428,-3.831782 -0.722381,-5.213751 0.157046,-1.38197 0.722382,-2.229973 1.680346,-2.858142 0.957964,-0.628169 2.30849,-1.036467 2.983766,-1.240621 z"
         id="path12-5-7"
         inkscape:path-effect="#path-effect12-7-9"
         inkscape:original-d="m -25.554602,33.623455 c 0,0 0,0 0,0 0,0 -1.884493,3.32927 -2.826739,4.993905 0.690994,2.763977 1.381961,5.527844 2.072942,8.291766 0.722403,1.413396 1.444777,2.826739 2.167166,4.240106 0.53395,1.162127 1.067879,2.324209 1.601818,3.486312 -1.664668,-1.915938 -3.32927,-3.831802 -4.993904,-5.7477 -1.005083,-1.915941 -2.010125,-3.831802 -3.015187,-5.747703 -0.251272,-1.915939 -0.502531,-3.831801 -0.753798,-5.747701 0.565359,-0.848039 1.130694,-1.696043 1.696043,-2.544065 1.35058,-0.408315 2.701106,-0.816613 4.051659,-1.22492 z"
         transform="matrix(0.63992682,0,0,1.0011838,-15.379452,-0.82817844)" /></g><path
       style="opacity:1;fill:#00a812;fill-opacity:1;stroke:#004608;stroke-width:1.3;stroke-dasharray:none;stroke-opacity:1"
       d="m 16.529825,25.344649 c -1.752293,-1.352647 -2.593017,-3.019341 -3.961411,-2.787906 -1.368394,0.231436 -3.2644315,2.361 -4.7499234,2.271677 -1.485492,-0.08932 -2.5604169,-2.397505 -4.5834732,-1.501817 -2.0230562,0.895688 -4.9940586,4.995108 -6.2446247,5.268888 -1.2505662,0.27378 -0.7805499,-3.278167 0.5304532,-6.099423 1.3110031,-2.821257 3.46289691,-4.911668 5.9530237,-5.895409 2.4901268,-0.983742 5.3183305,-0.860777 7.0091444,-0.860778 1.690813,-1e-6 2.244149,-0.122965 1.373471,-0.589993 C 10.985806,14.68286 8.6911531,13.871796 7.6314568,12.70287 6.5717604,11.533944 6.7470557,10.00718 5.8039412,8.3529979 4.8608268,6.6988157 2.7993539,4.9172797 1.518036,3.4929669 0.23671803,2.0686541 -0.26435576,1.0016608 0.19677346,0.60201546 0.65790267,0.20237012 2.0812361,0.47008727 5.1085337,1.9956026 8.1358312,3.521118 12.766941,6.304346 15.287832,9.2863749 c 2.52089,2.9820291 2.931339,6.1626091 3.013596,7.4147621 0.08226,1.252153 -0.163668,0.575854 -0.252008,-0.504572 -0.08834,-1.080426 -0.01908,-2.564899 0.442048,-3.671608 0.461129,-1.10671 1.314124,-1.835633 3.431443,-2.6612293 2.117318,-0.8255967 5.498915,-1.7478505 6.201184,-1.5621974 0.702268,0.1856532 -1.274688,1.4791377 -2.415348,3.0529987 -1.14066,1.573862 -1.444887,3.427949 -1.806376,4.648022 -0.361489,1.220073 -0.780243,1.806125 -1.238194,2.50721 -0.457951,0.701085 -0.955079,1.517171 0.337453,0.647252 1.292532,-0.869919 4.374654,-3.4258 7.971469,-3.333574 3.596814,0.09223 7.708237,2.832579 9.345315,4.341239 1.637078,1.50866 0.799789,1.785588 -1.059264,1.433003 -1.859054,-0.352585 -4.739664,-1.334636 -7.579713,-1.257908 -2.84005,0.07673 -5.639255,1.212249 -7.100371,2.425614 -1.461115,1.213366 -1.584081,2.504503 -1.522595,3.518996 0.06149,1.014492 0.307417,1.752282 -0.901569,1.601882 -1.208985,-0.150401 -3.872785,-1.188969 -5.625077,-2.541616 z"
       id="path17"
       inkscape:path-effect="#path-effect17"
       inkscape:original-d="m 15.618262,25.658706 c -0.840729,-1.666704 -1.681455,-3.333398 -2.522188,-5.00011 -1.896054,2.129583 -3.7920914,4.259147 -5.6881351,6.388718 -1.0749403,-2.308216 -2.1498653,-4.616399 -3.2248232,-6.924653 -2.9711546,4.09963 -5.9421572,8.19905 -8.9133242,12.298698 0.470035,-3.552088 0.9400513,-7.104035 1.4100769,-10.656052 2.1519802,-2.090496 4.30387428,-4.180907 6.4558113,-6.27136 2.8283167,0.12297 5.6565204,0.245936 8.4847803,0.368903 0.553367,-0.12297 1.106703,-0.245934 1.660066,-0.368903 C 10.985806,14.68286 8.691153,13.871796 6.3964639,13.060719 6.5717604,11.533944 6.7470557,10.00718 6.922353,8.4803978 4.8608268,6.6988157 2.7993539,4.9172797 0.73780699,3.1356797 0.23671802,2.0686541 -0.26435577,1.0016608 -0.76543691,-0.06534819 0.65790267,0.20237012 2.0812361,0.47008726 3.5045832,0.73780699 8.1358312,3.521118 12.766941,6.304346 17.398258,9.0876984 c 0.410464,3.1807056 0.820912,6.3612856 1.231369,9.5419286 -0.245941,-0.676337 -0.491867,-1.352636 -0.737807,-2.02897 0.06926,-1.484518 0.138519,-2.968991 0.207778,-4.453484 0.852999,-0.728926 1.705994,-1.457849 2.558998,-2.1867785 3.381633,-0.9222635 6.76323,-1.8445175 10.144846,-2.7667762 -1.977079,1.2935651 -3.954035,2.5870494 -5.931118,3.8806177 -0.304237,1.854155 -0.608464,3.708242 -0.912692,5.562341 -0.418751,0.586047 -0.837504,1.172099 -1.256262,1.758157 -0.497145,0.816112 -0.994272,1.632198 -1.491419,2.448314 3.082211,-2.555954 6.164333,-5.111835 9.246507,-7.667758 4.111455,2.740375 8.222878,5.480728 12.334348,8.221113 -0.837314,0.276935 -1.674603,0.553862 -2.511929,0.830802 -2.880781,-0.982109 -5.761391,-1.96416 -8.642173,-2.94627 -2.799317,1.135566 -5.598522,2.271087 -8.397783,3.40663 -0.122971,1.291188 -0.245936,2.582325 -0.368904,3.873487 0.245941,0.737823 0.491871,1.475613 0.737807,2.213422 -2.663907,-1.03861 -5.327707,-2.077178 -7.991562,-3.115768 z"
       transform="matrix(0.31561126,0.05937032,-0.05937032,0.31561126,10.973429,22.99119)"
       sodipodi:nodetypes="cccccccccccccccccccccccccccccccc" /><path
       style="opacity:1;fill:#0aff81;fill-opacity:1;stroke:none;stroke-width:1.3;stroke-dasharray:none;stroke-opacity:1"
       d="m 28.134455,27.784673 c 0.142674,-0.142674 0.142674,-0.142674 0.142674,-0.142674 1.086166,-0.745588 2.172332,-1.491177 3.534658,-1.979033 1.362327,-0.487857 3.000746,-0.717972 4.376874,-0.685752 1.376129,0.03222 2.489887,0.326767 3.819995,0.888268 1.330108,0.561501 2.876484,1.389916 3.819978,1.965219 0.943495,0.575303 1.284065,0.897463 1.196614,0.948088 -0.08745,0.05062 -0.602908,-0.170287 -1.454364,-0.510869 -0.851455,-0.340582 -2.03885,-0.800813 -3.129627,-1.17361 -1.090778,-0.372797 -2.084876,-0.658139 -3.037582,-0.828429 -0.952707,-0.170289 -1.863961,-0.225516 -2.641774,-0.193298 -0.777813,0.03222 -1.422134,0.151878 -2.048066,0.280746 -0.625933,0.128869 -1.233438,0.266938 -1.762717,0.441831 -0.529279,0.174892 -0.980306,0.386598 -1.403732,0.630528 -0.423425,0.24393 -0.819222,0.520068 -1.145995,0.860649 -0.326772,0.340582 -0.584501,0.745585 -0.759393,1.044743 -0.174891,0.299157 -0.266937,0.492455 -0.289949,0.335968 -0.02301,-0.156487 0.02301,-0.662741 0.1887,-1.05855 0.16569,-0.395808 0.451032,-0.681151 0.593706,-0.823825 z"
       id="path18"
       inkscape:path-effect="#path-effect18"
       inkscape:original-d="m 28.277129,27.641999 c 0,0 0,0 0,0 0,0 2.172332,-1.491177 3.258497,-2.236765 1.638488,-0.230125 3.276907,-0.46024 4.915361,-0.69036 1.113803,0.294559 2.227561,0.589107 3.34134,0.88366 1.546437,0.828449 3.092813,1.656864 4.639218,2.485296 0.340585,0.322172 0.681154,0.644334 1.021731,0.966502 -0.515478,-0.22092 -1.030936,-0.441831 -1.546405,-0.662745 -1.187442,-0.460248 -2.374837,-0.92048 -3.562255,-1.38072 -0.994137,-0.285353 -1.988235,-0.570696 -2.982354,-0.856045 -0.911294,-0.05523 -1.822548,-0.110458 -2.733823,-0.165686 -0.644351,0.119664 -1.288672,0.239324 -1.933009,0.358987 -0.607528,0.138075 -1.215033,0.276143 -1.822548,0.414216 -0.451043,0.211714 -0.90207,0.42342 -1.353106,0.635129 -0.395814,0.276151 -0.791612,0.552289 -1.187418,0.828432 -0.257738,0.405019 -0.515469,0.810022 -0.773202,1.215033 -0.09205,0.193304 -0.184097,0.386601 -0.276143,0.579903 0.04602,-0.506275 0.09205,-1.012529 0.13807,-1.51879 0.285356,-0.285356 0.570698,-0.570699 0.856046,-0.856047 z"
       transform="matrix(0.32114685,0,0,0.28537607,7.7963204,23.727673)" /><path
       style="opacity:1;fill:#0aff81;fill-opacity:1;stroke:none;stroke-width:1.3;stroke-dasharray:none;stroke-opacity:1"
       d="m 34.54719,15.022813 c -0.184814,0.132011 -0.554445,0.396032 -0.920778,0.666657 -0.366332,0.270624 -0.729354,0.547841 -1.052783,0.831667 -0.323429,0.283826 -0.607247,0.574245 -0.848168,0.904275 -0.240921,0.33003 -0.438933,0.699653 -0.613849,1.01318 -0.174916,0.313528 -0.326725,0.570943 -0.504942,0.920776 -0.178217,0.349833 -0.382829,0.79206 -0.590748,1.191396 -0.207918,0.399335 -0.419131,0.755757 -0.607248,1.036282 -0.188117,0.280524 -0.353127,0.485138 -0.574248,0.742561 -0.22112,0.257423 -0.498337,0.567642 -0.719457,0.815164 -0.22112,0.247523 -0.38613,0.432334 -0.488438,0.633651 -0.102309,0.201318 -0.141911,0.419133 -0.191416,0.369625 -0.0495,-0.04951 -0.108908,-0.366326 -0.0231,-0.749162 0.08581,-0.382835 0.316823,-0.831661 0.59735,-1.221097 0.280526,-0.389436 0.610546,-0.719456 0.917474,-1.145195 0.306927,-0.425739 0.590744,-0.947171 0.795361,-1.498321 0.204618,-0.55115 0.330025,-1.131986 0.478539,-1.564324 0.148514,-0.432338 0.320125,-0.716154 0.551147,-1.013182 0.231022,-0.297027 0.521439,-0.607246 0.808565,-0.825065 0.287126,-0.217819 0.570944,-0.343226 0.815165,-0.422433 0.24422,-0.07921 0.448833,-0.11221 0.600645,-0.155113 0.151813,-0.0429 0.250822,-0.09571 0.534649,-0.20792 0.283828,-0.11221 0.752456,-0.28382 0.986775,-0.369627 0.234319,-0.08581 0.234319,-0.08581 0.0495,0.0462 z"
       id="path19"
       inkscape:path-effect="#path-effect19"
       inkscape:original-d="m 34.732005,14.890803 c -0.369629,0.264021 -0.73926,0.528042 -1.10889,0.792064 -0.363035,0.277228 -0.726057,0.554444 -1.089086,0.831667 -0.283829,0.290429 -0.567648,0.580847 -0.851469,0.87127 -0.198022,0.369637 -0.396034,0.73926 -0.594048,1.10889 -0.151815,0.257426 -0.303625,0.514841 -0.455438,0.772262 -0.204621,0.442245 -0.409233,0.884472 -0.613849,1.326707 -0.211222,0.356436 -0.422434,0.712858 -0.633651,1.069287 -0.165017,0.20462 -0.330028,0.409233 -0.49504,0.613849 -0.277228,0.310231 -0.554445,0.62045 -0.831668,0.930675 -0.165018,0.184819 -0.330028,0.36963 -0.49504,0.554445 -0.0396,0.217822 -0.07921,0.435635 -0.118809,0.653453 -0.05941,-0.316832 -0.118811,-0.633651 -0.178215,-0.950477 0.231023,-0.448845 0.462036,-0.897672 0.693057,-1.346509 0.330034,-0.330033 0.660054,-0.660053 0.990079,-0.990079 0.283829,-0.521453 0.567645,-1.042885 0.851469,-1.564327 0.125412,-0.580858 0.25082,-1.161694 0.376229,-1.742541 0.17162,-0.283828 0.343229,-0.567645 0.514843,-0.851468 0.29043,-0.310232 0.580847,-0.620451 0.87127,-0.930676 0.283829,-0.125412 0.567647,-0.25082 0.851469,-0.37623 0.20462,-0.033 0.409233,-0.066 0.613849,-0.09901 0.09901,-0.0528 0.198017,-0.105608 0.297024,-0.158413 0.468648,-0.171617 0.937276,-0.343227 1.405914,-0.514841 z"
       transform="matrix(0.32114685,0,0,0.32114685,7.7963204,22.66447)" /><path
       style="opacity:1;fill:#0aff81;fill-opacity:1;stroke:none;stroke-width:1.3;stroke-dasharray:none;stroke-opacity:1"
       d="m 10.853733,2.3974705 c 0.07537,0.134264 0.688738,0.5278226 1.326795,1.1685074 0.638057,0.6406848 1.300737,1.5284261 1.998342,2.1619959 0.697605,0.6335699 1.430051,1.0128918 2.023614,1.5453927 0.593563,0.532501 1.048173,1.2181185 1.470859,1.8155558 0.422685,0.5974374 0.813397,1.1066257 1.307829,1.7174307 0.494432,0.610806 1.092525,1.323154 1.479118,1.798139 0.386593,0.474985 0.561641,0.71255 1.154898,1.971634 0.593257,1.259083 1.604639,3.539507 1.97929,5.012866 0.37465,1.473359 0.1125,2.139418 0.08145,2.278644 -0.03105,0.139226 0.169012,-0.248387 0.31906,-0.917356 0.150047,-0.668968 0.250077,-1.619245 0.131286,-2.732105 -0.11879,-1.112861 -0.456389,-2.388233 -0.869022,-3.451073 -0.412634,-1.062841 -0.900277,-1.913089 -1.550488,-2.84464 C 21.056557,10.990911 20.24382,9.9781151 19.168471,8.8652553 18.093121,7.7523955 16.75523,6.5395412 15.467316,5.4641963 14.179402,4.3888514 12.94154,3.4510772 12.09127,2.9196601 11.241,2.388243 10.778365,2.2632066 10.853733,2.3974705 Z"
       id="path20"
       inkscape:path-effect="#path-effect20"
       inkscape:original-d="m 10.31572,2.1381675 c 0.613382,0.3935669 1.226751,0.7871257 1.840145,1.1807003 0.66272,0.8877949 1.3254,1.7755362 1.98812,2.6633312 0.73249,0.3793447 1.464936,0.7586666 2.197426,1.1380112 0.454636,0.6856574 0.909246,1.3712749 1.363882,2.0569316 0.390735,0.5092178 0.781448,1.0184062 1.172183,1.5276252 0.598129,0.712391 1.196221,1.42474 1.794349,2.137132 0.175058,0.237578 0.350106,0.475143 0.525164,0.712722 1.011456,2.280588 2.022838,4.561012 3.034306,6.841628 -0.262167,0.666102 -0.524317,1.332161 -0.786476,1.998242 0.200066,-0.387629 0.400125,-0.775242 0.600187,-1.162863 0.100033,-0.950316 0.200063,-1.900593 0.300094,-2.85089 C 24.007488,17.105314 23.669889,15.829942 23.332284,14.554544 22.844622,13.704261 22.356979,12.854013 21.869327,12.003747 21.056557,10.990911 20.24382,9.978115 19.431066,8.9652987 18.093121,7.7523958 16.75523,6.5395416 15.417313,5.3266628 14.179402,4.3888514 12.94154,3.4510773 11.703654,2.5132846 11.241,2.388243 10.778365,2.2632065 10.31572,2.1381675 Z"
       sodipodi:nodetypes="cccccccccccccccccc"
       transform="matrix(0.32114685,0,0,0.32114685,7.7963204,22.66447)" /><path
       style="opacity:1;fill:#0aff81;fill-opacity:1;stroke:none;stroke-width:1.3;stroke-dasharray:none;stroke-opacity:1"
       d="m 19.099515,19.34756 c -0.106306,0.141741 -0.673267,0.460656 -1.783583,0.631926 -1.110317,0.17127 -2.763921,0.194893 -4.258114,0.171269 -1.494193,-0.02362 -2.828888,-0.09449 -3.8151711,0.118123 -0.9862831,0.212615 -1.6241019,0.708696 -2.2973758,1.293382 -0.673274,0.584686 -1.3819616,1.257939 -2.2560376,2.279665 -0.874076,1.021725 -1.913485,2.391855 -2.338704,2.698951 -0.4252189,0.307096 -0.2362356,-0.448837 0.2067101,-1.322912 0.4429457,-0.874076 1.139822,-1.866239 1.9016847,-2.752124 0.7618627,-0.885885 1.5886648,-1.665441 2.6458246,-2.356431 1.0571598,-0.690991 2.3446089,-1.293375 3.4431061,-1.54142 1.098497,-0.248045 2.007979,-0.141741 3.023797,0.0059 1.015817,0.147648 2.137905,0.336631 2.976541,0.460654 0.838636,0.124024 1.393775,0.183081 1.848529,0.194893 0.454754,0.01181 0.809098,-0.02362 0.702793,0.118117 z"
       id="path21"
       inkscape:path-effect="#path-effect21"
       inkscape:original-d="m 19.560171,19.170385 c -0.566962,0.318915 -1.133923,0.637831 -1.700885,0.956747 -1.653671,0.02362 -3.307275,0.04725 -4.960913,0.07087 -1.334748,-0.07087 -2.669443,-0.14174 -4.0041649,-0.21261 -0.6378445,0.496101 -1.2756634,0.992182 -1.913495,1.488274 -0.708716,0.67328 -1.4174038,1.346533 -2.1261056,2.0198 -1.03945,1.370184 -2.0788588,2.740314 -3.118288,4.11047 0.1889909,-0.755964 0.3779743,-1.511897 0.5669615,-2.267845 0.696904,-0.992203 1.3937802,-1.984366 2.0906705,-2.976548 0.8268353,-0.779588 1.6536376,-1.559144 2.4804563,-2.338716 1.2875008,-0.602409 2.5749501,-1.204793 3.8624252,-1.80719 0.909519,0.106308 1.819001,0.212611 2.728502,0.318916 1.122134,0.188991 2.244222,0.377974 3.366334,0.566961 0.55516,0.05906 1.110299,0.118118 1.665449,0.177176 0.354358,-0.03544 0.708702,-0.07087 1.063053,-0.106305 z"
       transform="matrix(0.32114685,0,0,0.32114685,7.7963204,22.66447)" /><path
       style="opacity:1;fill:#00592b;fill-opacity:1;stroke:none;stroke-width:1.3;stroke-dasharray:none;stroke-opacity:1"
       d="m 29.870143,24.97194 c 0.804243,-0.149532 2.64713,-0.715331 4.053555,-1.038645 1.406424,-0.323315 2.376346,-0.404142 3.887858,0.105088 1.511512,0.509231 3.564512,1.608475 4.182841,1.786291 0.61833,0.177815 -0.19802,-0.565792 -1.111392,-1.180093 C 39.969633,24.030279 38.9593,23.545319 38.082304,23.23817 37.205308,22.93102 36.4617,22.801697 35.746362,22.797657 c -0.715339,-0.004 -1.402366,0.1172 -2.089415,0.278859 -0.687049,0.161659 -1.374077,0.363726 -2.061124,0.62238 -0.687048,0.258654 -1.374075,0.573878 -1.834801,0.864864 -0.460725,0.290985 -0.695122,0.557713 0.109121,0.40818 z"
       id="path22"
       inkscape:path-effect="#path-effect22"
       inkscape:original-d="m 28.831497,25.388207 c 1.842889,-0.565799 3.685776,-1.131598 5.528665,-1.697397 0.96996,-0.08083 1.939882,-0.161657 2.909824,-0.242485 2.053082,1.099288 4.106082,2.198533 6.159124,3.297801 C 42.612728,26.002488 41.796377,25.258882 40.98001,24.51526 39.969633,24.03028 38.9593,23.545319 37.948944,23.060348 37.205308,22.93102 36.4617,22.801697 35.71808,22.672372 c -0.687057,0.121245 -1.374084,0.242485 -2.061125,0.363728 -0.687057,0.202075 -1.374085,0.404142 -2.061125,0.606213 -0.687055,0.315237 -1.374082,0.630462 -2.061126,0.945693 -0.234407,0.266739 -0.468804,0.533467 -0.703207,0.800201 z"
       transform="matrix(0.32114685,0,0,0.32114685,7.7729579,22.602171)" /><path
       style="opacity:1;fill:#00592b;fill-opacity:1;stroke:none;stroke-width:1.3;stroke-dasharray:none;stroke-opacity:1"
       d="m 25.290233,21.619429 c -0.0032,-0.04434 -0.0095,-0.133025 0.08869,-0.456087 0.09819,-0.323062 0.300884,-0.880481 0.481417,-1.45692 0.180533,-0.57644 0.338891,-1.171865 0.544762,-1.643783 0.205871,-0.471918 0.459244,-0.820306 0.79814,-1.140198 0.338896,-0.319892 0.763296,-0.611272 1.251053,-0.791803 0.487757,-0.180532 1.038841,-0.250209 2.074536,-0.433911 1.035696,-0.183701 2.555929,-0.481413 3.072181,-0.623938 0.516252,-0.142524 0.02851,-0.129854 -0.544763,-0.07918 -0.573272,0.05068 -1.232041,0.139358 -1.919335,0.234375 -0.687293,0.09502 -1.40307,0.196367 -1.96367,0.307221 -0.560601,0.110853 -0.965999,0.231205 -1.323898,0.36423 -0.357899,0.133025 -0.668279,0.278713 -0.94383,0.500421 -0.27555,0.221709 -0.516252,0.519421 -0.712621,0.85515 -0.196369,0.335729 -0.348393,0.709453 -0.456079,0.988171 -0.107686,0.278717 -0.171029,0.462411 -0.190032,0.712625 -0.019,0.250213 0.0063,0.566928 -0.02851,1.029348 -0.03484,0.46242 -0.129856,1.070513 -0.177364,1.374566 -0.04751,0.304053 -0.04751,0.304049 -0.05068,0.25971 z"
       id="path23"
       inkscape:path-effect="#path-effect23"
       inkscape:original-d="m 25.2934,21.663768 c -0.0063,-0.08868 -0.01267,-0.177364 -0.019,-0.266046 0.202706,-0.557442 0.405404,-1.114861 0.608106,-1.672291 0.158364,-0.595449 0.316722,-1.190874 0.475083,-1.786311 0.25338,-0.3484 0.506753,-0.696788 0.760131,-1.045181 0.424415,-0.29139 0.848815,-0.582769 1.27322,-0.874153 0.551109,-0.06968 1.102193,-0.139357 1.653289,-0.209036 1.520295,-0.297724 3.040528,-0.595437 4.560794,-0.893155 -0.487762,0.01267 -0.975505,0.02534 -1.463257,0.03801 -0.658793,0.08868 -1.317561,0.177365 -1.976342,0.266047 -0.715806,0.101353 -1.431583,0.202702 -2.147374,0.304053 -0.40541,0.120356 -0.810808,0.240708 -1.21621,0.361062 -0.310396,0.145695 -0.620776,0.291384 -0.931164,0.437076 -0.240713,0.297725 -0.481415,0.595437 -0.722124,0.893156 -0.152029,0.373739 -0.304053,0.747463 -0.456079,1.121195 -0.06335,0.183702 -0.126689,0.367397 -0.190033,0.551095 0.02534,0.316729 0.05067,0.633444 0.07601,0.950166 -0.09502,0.608118 -0.190033,1.216211 -0.285049,1.824317 z"
       transform="matrix(0.32114685,0,0,0.32114685,7.7963204,22.652265)" /><path
       style="opacity:1;fill:#00592b;fill-opacity:1;stroke:none;stroke-width:1.3;stroke-dasharray:none;stroke-opacity:1"
       d="m 10.435981,2.2772292 c 0.02217,0.034839 0.06651,0.1045175 0.243879,0.4212455 0.177368,0.316728 0.487749,0.8804812 0.896325,1.5202665 0.408576,0.6397852 0.915321,1.3555618 1.437917,2.1188694 0.522597,0.7633076 1.061013,1.5740988 1.422078,2.2835616 0.361064,0.7094628 0.544759,1.3175565 0.690452,1.9446718 0.145694,0.627116 0.253377,1.273215 0.43391,1.938338 0.180534,0.665122 0.433907,1.349228 1.016684,2.020685 0.582777,0.671456 1.494917,1.330224 2.141034,1.865488 0.646116,0.535264 1.026174,0.946994 1.146527,1.27322 0.120353,0.326226 -0.019,0.566929 -0.145691,0.557425 -0.12669,-0.0095 -0.240708,-0.269211 -0.535264,-0.554264 C 18.889276,17.381684 18.414203,17.071303 18.008796,16.770414 17.603389,16.469525 17.26767,16.178147 16.884432,15.839251 16.501195,15.500355 16.070462,15.113962 15.76324,14.664212 15.456018,14.214462 15.272323,13.701383 15.16147,13.19779 15.050618,12.694198 15.012612,12.200122 14.955601,11.715534 14.89859,11.230945 14.822578,10.755871 14.680051,10.264947 14.537524,9.7740231 14.328492,9.2672784 14.094116,8.8016933 13.859739,8.3361083 13.600032,7.9117094 13.270637,7.3986143 12.941243,6.8855192 12.542181,6.2837595 12.212788,5.7833352 11.883395,5.2829109 11.623688,4.8838492 11.373476,4.4531031 11.123263,4.0223569 10.88256,3.5599523 10.721031,3.2400617 10.559502,2.9201711 10.477156,2.7428106 10.439149,2.6002856 c -0.03801,-0.1425249 -0.03167,-0.2502104 -0.02851,-0.304053 0.0032,-0.053843 0.0032,-0.053843 0.02534,-0.019003 z"
       id="path24"
       inkscape:path-effect="#path-effect24"
       inkscape:original-d="m 10.413811,2.24239 c 0.04434,0.069679 0.08868,0.1393576 0.133023,0.2090364 0.310394,0.5637761 0.620775,1.1275293 0.931162,1.6912942 0.506766,0.7158054 1.01351,1.4315824 1.520265,2.1473734 0.538438,0.8108241 1.076854,1.6216154 1.615281,2.4324231 0.183702,0.608118 0.367397,1.2162117 0.551096,1.8243169 0.107687,0.646126 0.215371,1.292225 0.323056,1.938338 0.253382,0.684132 0.506755,1.368238 0.760132,2.052357 0.912177,0.658794 1.824317,1.317562 2.736476,1.976343 0.380074,0.411747 0.760132,0.823477 1.140198,1.235215 -0.13936,0.240714 -0.278715,0.481417 -0.418072,0.722126 -0.114022,-0.259717 -0.22804,-0.519424 -0.34206,-0.779136 -0.475092,-0.310393 -0.950165,-0.620774 -1.425248,-0.931162 -0.335731,-0.29139 -0.67145,-0.582768 -1.007175,-0.874152 -0.43075,-0.386408 -0.861483,-0.772801 -1.292225,-1.159201 -0.183702,-0.5131 -0.367397,-1.026179 -0.551095,-1.539268 -0.03801,-0.494096 -0.07601,-0.988172 -0.11402,-1.482258 -0.07601,-0.475092 -0.152027,-0.950165 -0.22804,-1.425248 C 14.537524,9.7740233 14.328492,9.2672785 14.119456,8.7605239 13.859739,8.3361082 13.600032,7.9117094 13.34032,7.4873024 12.941243,6.885519 12.542181,6.2837596 12.143112,5.6819884 11.883395,5.282911 11.623688,4.8838495 11.363977,4.48478 11.123263,4.0223572 10.882559,3.5599526 10.641851,3.0975387 10.559502,2.920171 10.477156,2.7428105 10.394808,2.5654462 c 0.0063,-0.1076875 0.01267,-0.2153708 0.019,-0.3230562 z"
       transform="matrix(0.31917223,0,0,0.32114685,7.7981078,22.701998)" /><path
       style="opacity:1;fill:#00592b;fill-opacity:1;stroke:none;stroke-width:1.3;stroke-dasharray:none;stroke-opacity:1"
       d="m 26.899666,31.86947 c 0,0 0,0 0,0 -0.812217,-0.394046 -1.624434,-0.788092 -2.39645,-1.282666 -0.772016,-0.494575 -1.503801,-1.089652 -2.102916,-1.632475 -0.599115,-0.542823 -1.065528,-1.033361 -1.612374,-1.68475 -0.546845,-0.65139 -1.174089,-1.463592 -1.993961,-2.031069 -0.819871,-0.567477 -1.832316,-0.890201 -2.61003,-0.961073 -0.777713,-0.07087 -1.320653,0.110108 -1.874921,-0.116128 -0.554268,-0.226235 -1.119831,-0.859665 -1.300812,-1.232945 -0.180982,-0.37328 0.02262,-0.486392 0.56558,-0.441144 0.54296,0.04525 1.425237,0.24885 2.307541,0.3959 0.882305,0.14705 1.764582,0.23754 2.533769,0.452462 0.769187,0.214921 1.42524,0.554259 2.092624,1.176399 0.667383,0.62214 1.346059,1.52704 1.515727,1.481785 0.169669,-0.04526 -0.169669,-1.040647 -0.407211,-1.934261 -0.237542,-0.893615 -0.373277,-1.685402 -0.690003,-2.262291 -0.316727,-0.576889 -0.814422,-0.938849 -0.644741,-0.746547 0.16968,0.192303 1.006713,0.938845 1.628848,1.640164 0.622135,0.701318 1.029341,1.35737 1.346064,2.013443 0.316724,0.656072 0.542949,1.312124 0.667375,1.821145 0.124427,0.50902 0.14705,0.870981 0.169673,0.701301 0.02262,-0.16968 0.04525,-0.870977 0.361974,-1.73066 0.316728,-0.859682 0.927536,-1.877695 1.097205,-1.798503 0.169669,0.07919 -0.101801,1.255562 -0.294097,2.149174 -0.192296,0.893613 -0.305409,1.504423 -0.339342,2.002132 -0.03393,0.497709 0.01131,0.882291 0.180986,0.848351 0.169675,-0.03394 0.463768,-0.486389 1.006726,-0.950164 0.542959,-0.463775 1.334746,-0.938847 2.069999,-1.300817 0.735253,-0.361971 1.413928,-0.610818 1.787208,-0.757868 0.37328,-0.14705 0.441146,-0.192294 -0.12444,0.192304 -0.565585,0.384599 -1.764577,1.199009 -2.45458,2.036067 -0.690002,0.837058 -0.870982,1.696714 -0.867047,2.359279 0.0039,0.662566 0.192779,1.128005 0.287204,1.36073 0.09442,0.232725 0.09442,0.232725 0.09442,0.232725 z"
       id="path25"
       inkscape:path-effect="#path-effect26"
       inkscape:original-d="m 26.899666,31.86947 c 0,0 0,0 0,0 0,0 -1.624434,-0.788091 -2.436651,-1.182138 -0.731815,-0.595103 -1.4636,-1.19018 -2.195399,-1.78527 -0.466431,-0.490556 -0.932844,-0.981094 -1.399265,-1.471639 -0.62727,-0.812234 -1.254514,-1.624436 -1.881771,-2.436653 -1.012486,-0.322737 -2.024931,-0.645461 -3.037397,-0.968192 -0.542961,0.180988 -1.085901,0.361968 -1.628852,0.542951 -0.565586,-0.633455 -1.131148,-1.266885 -1.696722,-1.900328 0.203611,-0.113117 0.407213,-0.226229 0.61082,-0.339344 0.882313,0.203611 1.76459,0.407213 2.646886,0.61082 0.882313,0.09049 1.76459,0.180983 2.646885,0.271475 0.656079,0.339351 1.312132,0.678689 1.968197,1.018033 0.678703,0.904936 1.357378,1.809836 2.036066,2.714754 -0.339351,-0.995429 -0.678688,-1.99082 -1.018033,-2.986229 -0.13574,-0.79182 -0.271475,-1.583607 -0.407213,-2.375411 -0.497715,-0.361974 -0.99541,-0.723934 -1.493115,-1.085902 0.837066,0.746573 1.674099,1.493115 2.511148,2.239673 0.407221,0.656079 0.814427,1.312131 1.22164,1.968197 0.226234,0.656079 0.452459,1.312131 0.678688,1.968196 0.02263,0.361976 0.04525,0.723937 0.06787,1.085903 0.02262,-0.701326 0.04525,-1.402623 0.06787,-2.103935 0.610832,-1.018053 1.22164,-2.036066 1.832459,-3.054099 -0.27148,1.176417 -0.54295,2.352787 -0.814426,3.529181 -0.113117,0.610831 -0.22623,1.221641 -0.339344,1.83246 0.04525,0.384599 0.09049,0.769181 0.135737,1.153771 0.294105,-0.452469 0.588197,-0.90492 0.882296,-1.357378 0.791819,-0.475091 1.583606,-0.950164 2.375411,-1.425246 0.678701,-0.248858 1.357376,-0.497705 2.036064,-0.746558 0.06787,-0.04525 0.135739,-0.09049 0.203607,-0.135737 -1.199041,0.814442 -2.398032,1.628853 -3.59705,2.44328 -0.180985,0.859689 -0.361965,1.719345 -0.54295,2.579015 0.188853,0.465461 0.377697,0.9309 0.566546,1.39635 z"
       transform="matrix(0.34787731,0,0,0.34787731,7.1559349,21.943927)"
       inkscape:export-filename="carrot.png"
       inkscape:export-xdpi="96"
       inkscape:export-ydpi="96" /></g></svg>
