<?xml version="1.0" encoding="UTF-8" standalone="no"?>
<!-- Created with Inkscape (http://www.inkscape.org/) -->

<svg
   width="36.074615mm"
   height="50.326515mm"
   viewBox="0 0 36.074615 50.326515"
   version="1.1"
   id="svg1"
   xml:space="preserve"
   inkscape:version="1.4.3 (0d15f75042, 2025-12-25)"
   sodipodi:docname="poi_carrot.svg"
   xmlns:inkscape="http://www.inkscape.org/namespaces/inkscape"
   xmlns:sodipodi="http://sodipodi.sourceforge.net/DTD/sodipodi-0.dtd"
   xmlns:xlink="http://www.w3.org/1999/xlink"
   xmlns="http://www.w3.org/2000/svg"
   xmlns:svg="http://www.w3.org/2000/svg"><sodipodi:namedview
     id="namedview1"
     pagecolor="#505050"
     bordercolor="#ffffff"
     borderopacity="1"
     inkscape:showpageshadow="0"
     inkscape:pageopacity="0"
     inkscape:pagecheckerboard="1"
     inkscape:deskcolor="#505050"
     inkscape:document-units="mm"
     inkscape:zoom="1.7125343"
     inkscape:cx="68.319799"
     inkscape:cy="48.174217"
     inkscape:window-width="1712"
     inkscape:window-height="894"
     inkscape:window-x="0"
     inkscape:window-y="0"
     inkscape:window-maximized="1"
     inkscape:current-layer="layer1" /><defs
     id="defs1"><inkscape:path-effect
       effect="bspline"
       id="path-effect41"
       is_visible="true"
       lpeversion="1.3"
       weight="33.333333"
       steps="2"
       helper_size="0"
       apply_no_weight="true"
       apply_with_weight="true"
       only_selected="false"
       uniform="false" /><inkscape:path-effect
       effect="bspline"
       id="path-effect40"
       is_visible="true"
       lpeversion="1.3"
       weight="33.333333"
       steps="2"
       helper_size="0"
       apply_no_weight="true"
       apply_with_weight="true"
       only_selected="false"
       uniform="false" /><inkscape:path-effect
       effect="bspline"
       id="path-effect39"
       is_visible="true"
       lpeversion="1.3"
       weight="33.333333"
       steps="2"
       helper_size="0"
       apply_no_weight="true"
       apply_with_weight="true"
       only_selected="false"
       uniform="false" /><inkscape:path-effect
       effect="bspline"
       id="path-effect38"
       is_visible="true"
       lpeversion="1.3"
       weight="33.333333"
       steps="2"
       helper_size="0"
       apply_no_weight="true"
       apply_with_weight="true"
       only_selected="false"
       uniform="false" /><inkscape:path-effect
       effect="bspline"
       id="path-effect29"
       is_visible="true"
       lpeversion="1.3"
       weight="33.333333"
       steps="2"
       helper_size="0"
       apply_no_weight="true"
       apply_with_weight="true"
       only_selected="false"
       uniform="false" /><inkscape:path-effect
       effect="bspline"
       id="path-effect28"
       is_visible="true"
       lpeversion="1.3"
       weight="33.333333"
       steps="2"
       helper_size="0"
       apply_no_weight="true"
       apply_with_weight="true"
       only_selected="false"
       uniform="false" /><inkscape:path-effect
       effect="bspline"
       id="path-effect27"
       is_visible="true"
       lpeversion="1.3"
       weight="33.333333"
       steps="2"
       helper_size="0"
       apply_no_weight="true"
       apply_with_weight="true"
       only_selected="false"
       uniform="false" /><inkscape:path-effect
       effect="bspline"
       id="path-effect16"
       is_visible="true"
       lpeversion="1.3"
       weight="33.333333"
       steps="2"
       helper_size="0"
       apply_no_weight="true"
       apply_with_weight="true"
       only_selected="false"
       uniform="false" /><inkscape:path-effect
       effect="bspline"
       id="path-effect15"
       is_visible="true"
       lpeversion="1.3"
       weight="33.333333"
       steps="2"
       helper_size="0"
       apply_no_weight="true"
       apply_with_weight="true"
       only_selected="false"
       uniform="false" /><inkscape:path-effect
       effect="bspline"
       id="path-effect14"
       is_visible="true"
       lpeversion="1.3"
       weight="33.333333"
       steps="2"
       helper_size="0"
       apply_no_weight="true"
       apply_with_weight="true"
       only_selected="false"
       uniform="false" /><inkscape:path-effect
       effect="bspline"
       id="path-effect13"
       is_visible="true"
       lpeversion="1.3"
       weight="33.333333"
       steps="2"
       helper_size="0"
       apply_no_weight="true"
       apply_with_weight="true"
       only_selected="false"
       uniform="false" /><inkscape:path-effect
       effect="bspline"
       id="path-effect12"
       is_visible="true"
       lpeversion="1.3"
       weight="33.333333"
       steps="2"
       helper_size="0"
       apply_no_weight="true"
       apply_with_weight="true"
       only_selected="false"
       uniform="false" /><linearGradient
       id="linearGradient1"
       inkscape:collect="always"><stop
         style="stop-color:#74007c;stop-opacity:1;"
         offset="0"
         id="stop1" /><stop
         style="stop-color:#85ab54;stop-opacity:1;"
         offset="1"
         id="stop2" /></linearGradient><inkscape:path-effect
       effect="bspline"
       id="path-effect26"
       is_visible="true"
       lpeversion="1.3"
       weight="33.333333"
       steps="2"
       helper_size="0"
       apply_no_weight="true"
       apply_with_weight="true"
       only_selected="false"
       uniform="false" /><inkscape:path-effect
       effect="bspline"
       id="path-effect25"
       is_visible="true"
       lpeversion="1.3"
       weight="33.333333"
       steps="2"
       helper_size="0"
       apply_no_weight="true"
       apply_with_weight="true"
       only_selected="false"
       uniform="false" /><inkscape:path-effect
       effect="bspline"
       id="path-effect24"
       is_visible="true"
       lpeversion="1.3"
       weight="33.333333"
       steps="2"
       helper_size="0"
       apply_no_weight="true"
       apply_with_weight="true"
       only_selected="false"
       uniform="false" /><inkscape:path-effect
       effect="bspline"
       id="path-effect23"
       is_visible="true"
       lpeversion="1.3"
       weight="33.333333"
       steps="2"
       helper_size="0"
       apply_no_weight="true"
       apply_with_weight="true"
       only_selected="false"
       uniform="false" /><inkscape:path-effect
       effect="bspline"
       id="path-effect22"
       is_visible="true"
       lpeversion="1.3"
       weight="33.333333"
       steps="2"
       helper_size="0"
       apply_no_weight="true"
       apply_with_weight="true"
       only_selected="false"
       uniform="false" /><inkscape:path-effect
       effect="bspline"
       id="path-effect21"
       is_visible="true"
       lpeversion="1.3"
       weight="33.333333"
       steps="2"
       helper_size="0"
       apply_no_weight="true"
       apply_with_weight="true"
       only_selected="false"
       uniform="false" /><inkscape:path-effect
       effect="bspline"
       id="path-effect20"
       is_visible="true"
       lpeversion="1.3"
       weight="33.333333"
       steps="2"
       helper_size="0"
       apply_no_weight="true"
       apply_with_weight="true"
       only_selected="false"
       uniform="false" /><inkscape:path-effect
       effect="bspline"
       id="path-effect19"
       is_visible="true"
       lpeversion="1.3"
       weight="33.333333"
       steps="2"
       helper_size="0"
       apply_no_weight="true"
       apply_with_weight="true"
       only_selected="false"
       uniform="false" /><inkscape:path-effect
       effect="bspline"
       id="path-effect18"
       is_visible="true"
       lpeversion="1.3"
       weight="33.333333"
       steps="2"
       helper_size="0"
       apply_no_weight="true"
       apply_with_weight="true"
       only_selected="false"
       uniform="false" /><inkscape:path-effect
       effect="bspline"
       id="path-effect17"
       is_visible="true"
       lpeversion="1.3"
       weight="33.333333"
       steps="2"
       helper_size="0"
       apply_no_weight="true"
       apply_with_weight="true"
       only_selected="false"
       uniform="false" /><inkscape:path-effect
       effect="bspline"
       id="path-effect11"
       is_visible="true"
       lpeversion="1.3"
       weight="33.333333"
       steps="2"
       helper_size="0"
       apply_no_weight="true"
       apply_with_weight="true"
       only_selected="false"
       uniform="false" /><inkscape:path-effect
       effect="bspline"
       id="path-effect10"
       is_visible="true"
       lpeversion="1.3"
       weight="33.333333"
       steps="2"
       helper_size="0"
       apply_no_weight="true"
       apply_with_weight="true"
       only_selected="false"
       uniform="false" /><inkscape:path-effect
       effect="bspline"
       id="path-effect9"
       is_visible="true"
       lpeversion="1.3"
       weight="33.333333"
       steps="2"
       helper_size="0"
       apply_no_weight="true"
       apply_with_weight="true"
       only_selected="false"
       uniform="false" /><inkscape:path-effect
       effect="bspline"
       id="path-effect8"
       is_visible="true"
       lpeversion="1.3"
       weight="33.333333"
       steps="2"
       helper_size="0"
       apply_no_weight="true"
       apply_with_weight="true"
       only_selected="false"
       uniform="false" /><inkscape:path-effect
       effect="bspline"
       id="path-effect7"
       is_visible="true"
       lpeversion="1.3"
       weight="33.333333"
       steps="2"
       helper_size="0"
       apply_no_weight="true"
       apply_with_weight="true"
       only_selected="false"
       uniform="false" /><inkscape:path-effect
       effect="bspline"
       id="path-effect6"
       is_visible="true"
       lpeversion="1.3"
       weight="33.333333"
       steps="2"
       helper_size="0"
       apply_no_weight="true"
       apply_with_weight="true"
       only_selected="false"
       uniform="false" /><inkscape:path-effect
       effect="bspline"
       id="path-effect5"
       is_visible="true"
       lpeversion="1.3"
       weight="33.333333"
       steps="2"
       helper_size="0"
       apply_no_weight="true"
       apply_with_weight="true"
       only_selected="false"
       uniform="false" /><inkscape:path-effect
       effect="bspline"
       id="path-effect4"
       is_visible="true"
       lpeversion="1.3"
       weight="33.333333"
       steps="2"
       helper_size="0"
       apply_no_weight="true"
       apply_with_weight="true"
       only_selected="false"
       uniform="false" /><inkscape:path-effect
       effect="bspline"
       id="path-effect3"
       is_visible="true"
       lpeversion="1.3"
       weight="33.333333"
       steps="2"
       helper_size="0"
       apply_no_weight="true"
       apply_with_weight="true"
       only_selected="false"
       uniform="false" /><inkscape:path-effect
       effect="bspline"
       id="path-effect2"
       is_visible="true"
       lpeversion="1.3"
       weight="33.333333"
       steps="2"
       helper_size="0"
       apply_no_weight="true"
       apply_with_weight="true"
       only_selected="false"
       uniform="false" /><inkscape:path-effect
       effect="bspline"
       id="path-effect1"
       is_visible="true"
       lpeversion="1.3"
       weight="33.333333"
       steps="2"
       helper_size="0"
       apply_no_weight="true"
       apply_with_weight="true"
       only_selected="false"
       uniform="false" /><inkscape:path-effect
       effect="bspline"
       id="path-effect2-5"
       is_visible="true"
       lpeversion="1.3"
       weight="33.333333"
       steps="2"
       helper_size="0"
       apply_no_weight="true"
       apply_with_weight="true"
       only_selected="false"
       uniform="false" /><inkscape:path-effect
       effect="bspline"
       id="path-effect2-7"
       is_visible="true"
       lpeversion="1.3"
       weight="33.333333"
       steps="2"
       helper_size="0"
       apply_no_weight="true"
       apply_with_weight="true"
       only_selected="false"
       uniform="false" /><filter
       inkscape:collect="always"
       style="color-interpolation-filters:sRGB"
       id="filter11"
       x="-1.244241"
       y="-0.33913817"
       width="3.488482"
       height="1.6782763"><feGaussianBlur
         inkscape:collect="always"
         stdDeviation="5.1673861"
         id="feGaussianBlur11" /></filter><filter
       inkscape:collect="always"
       style="color-interpolation-filters:sRGB"
       id="filter12"
       x="-0.12625229"
       y="-0.050995086"
       width="1.2525046"
       height="1.1019902"><feGaussianBlur
         inkscape:collect="always"
         stdDeviation="1.5572605"
         id="feGaussianBlur12" /></filter><inkscape:path-effect
       effect="bspline"
       id="path-effect1-0"
       is_visible="true"
       lpeversion="1.3"
       weight="33.333333"
       steps="2"
       helper_size="0"
       apply_no_weight="true"
       apply_with_weight="true"
       only_selected="false"
       uniform="false" /><filter
       inkscape:collect="always"
       style="color-interpolation-filters:sRGB"
       id="filter26"
       x="-0.51582478"
       y="-0.30466267"
       width="2.0316496"
       height="1.6093253"><feGaussianBlur
         inkscape:collect="always"
         stdDeviation="8.2048449"
         id="feGaussianBlur26" /></filter><linearGradient
       inkscape:collect="always"
       xlink:href="#linearGradient1"
       id="linearGradient2"
       x1="4.6678777"
       y1="58.479275"
       x2="18.568602"
       y2="65.616982"
       gradientUnits="userSpaceOnUse" /><inkscape:path-effect
       effect="bspline"
       id="path-effect38-6"
       is_visible="true"
       lpeversion="1.3"
       weight="33.333333"
       steps="2"
       helper_size="0"
       apply_no_weight="true"
       apply_with_weight="true"
       only_selected="false"
       uniform="false" /><filter
       inkscape:collect="always"
       style="color-interpolation-filters:sRGB"
       id="filter11-8"
       x="-1.244241"
       y="-0.33913817"
       width="3.488482"
       height="1.6782763"><feGaussianBlur
         inkscape:collect="always"
         stdDeviation="5.1673861"
         id="feGaussianBlur11-7" /></filter><inkscape:path-effect
       effect="bspline"
       id="path-effect3-9"
       is_visible="true"
       lpeversion="1.3"
       weight="33.333333"
       steps="2"
       helper_size="0"
       apply_no_weight="true"
       apply_with_weight="true"
       only_selected="false"
       uniform="false" /></defs><g
     inkscape:label="Layer 1"
     inkscape:groupmode="layer"
     id="layer1"
     transform="translate(3.2233688,-17.79372)"><path
       style="mix-blend-mode:normal;fill:#477900;fill-opacity:1;stroke:none;stroke-width:1.22037;stroke-dasharray:none;stroke-opacity:1;filter:url(#filter26);opacity:0.57980155"
       d="m 80.461203,30.999962 c -1.330711,0.449817 -3.167469,1.199515 -4.77933,2.548987 -1.611861,1.349473 -2.998773,3.298646 -3.785957,5.622732 -0.787183,2.324087 -0.974604,5.022943 -0.693461,8.452847 0.281144,3.429903 1.030826,7.590637 2.492756,13.625775 1.461931,6.035139 3.636009,13.944282 5.716437,19.679497 2.080428,5.735216 4.067084,9.296204 5.547745,11.339133 1.48066,2.042928 2.455248,2.567705 3.636034,2.380272 1.180786,-0.187433 2.567698,-1.087051 4.235793,-3.242462 1.668094,-2.155412 3.617267,-5.566465 5.866383,-10.308358 2.249117,-4.741894 4.798027,-10.814318 6.466117,-15.931039 1.66808,-5.11672 2.45525,-9.277455 3.07375,-12.632372 0.61851,-3.354918 1.06832,-5.903837 1.01209,-8.434089 -0.0562,-2.530252 -0.6185,-5.041685 -1.87426,-7.159595 -1.25576,-2.11791 -3.20494,-3.842179 -5.51028,-4.966729 -2.305345,-1.124549 -4.966715,-1.649327 -8.096735,-1.83675 -3.130019,-0.187422 -6.728492,-0.03749 -8.940106,0.112455 -2.211614,0.149941 -3.036264,0.299878 -4.366976,0.749696 z"
       id="path1-6"
       inkscape:path-effect="#path-effect1-0"
       inkscape:original-d="m 80.967248,30.700083 c -1.836756,0.749697 -3.673514,1.499393 -5.51027,2.24909 -1.386967,1.949249 -2.773879,3.898421 -4.160817,5.847633 -0.187428,2.698962 -0.374848,5.397818 -0.562274,8.096726 0.749713,4.160899 1.499394,8.321633 2.249091,12.482452 2.174166,7.909457 4.348242,15.818601 6.522363,23.727902 1.986735,3.56113 3.973393,7.122117 5.960088,10.683179 0.974625,0.524795 1.949212,1.049573 2.923818,1.57436 1.386967,-0.899652 2.773879,-1.799269 4.160817,-2.698906 1.949251,-3.411188 3.898423,-6.822241 5.847635,-10.233361 2.549021,-6.072666 5.097941,-12.145089 7.646901,-18.217631 0.7872,-4.160901 1.57437,-8.321635 2.36155,-12.482451 0.44983,-2.54902 0.89964,-5.097939 1.34946,-7.646908 -0.56229,-2.511534 -1.12455,-5.022967 -1.68682,-7.534452 -1.94925,-1.724338 -3.89843,-3.448603 -5.84764,-5.172906 -2.661475,-0.524799 -5.322845,-1.049576 -7.98427,-1.574364 -3.598614,0.149942 -7.197087,0.299879 -10.795632,0.449819 -0.824683,0.149942 -1.649333,0.299878 -2.474,0.449818 z"
       transform="matrix(0.46512913,0,0,0.48382762,-27.125261,12.781885)" /><path
       style="opacity:1;fill:#ee00ff;fill-opacity:1;stroke:#1c2a1d;stroke-width:1.22037;stroke-dasharray:none;stroke-opacity:1"
       d="m 80.461203,30.999962 c -1.330711,0.449817 -3.167469,1.199515 -4.77933,2.548987 -1.611861,1.349473 -2.998773,3.298646 -3.785957,5.622732 -0.787183,2.324087 -0.974604,5.022943 -0.693461,8.452847 0.281144,3.429903 1.030826,7.590637 2.492756,13.625775 1.461931,6.035139 3.636009,13.944282 5.716437,19.679497 2.080428,5.735216 4.067084,9.296204 5.547745,11.339133 1.48066,2.042928 2.455248,2.567705 3.636034,2.380272 1.180786,-0.187433 2.567698,-1.087051 4.235793,-3.242462 1.668094,-2.155412 3.617267,-5.566465 5.866383,-10.308358 2.249117,-4.741894 4.798027,-10.814318 6.466117,-15.931039 1.66808,-5.11672 2.45525,-9.277455 3.07375,-12.632372 0.61851,-3.354918 1.06832,-5.903837 1.01209,-8.434089 -0.0562,-2.530252 -0.6185,-5.041685 -1.87426,-7.159595 -1.25576,-2.11791 -3.20494,-3.842179 -5.51028,-4.966729 -2.305345,-1.124549 -4.966715,-1.649327 -8.096735,-1.83675 -3.130019,-0.187422 -6.728492,-0.03749 -8.940106,0.112455 -2.211614,0.149941 -3.036264,0.299878 -4.366976,0.749696 z"
       id="path1"
       inkscape:path-effect="#path-effect1"
       inkscape:original-d="m 80.967248,30.700083 c -1.836756,0.749697 -3.673514,1.499393 -5.51027,2.24909 -1.386967,1.949249 -2.773879,3.898421 -4.160817,5.847633 -0.187428,2.698962 -0.374848,5.397818 -0.562274,8.096726 0.749713,4.160899 1.499394,8.321633 2.249091,12.482452 2.174166,7.909457 4.348242,15.818601 6.522363,23.727902 1.986735,3.56113 3.973393,7.122117 5.960088,10.683179 0.974625,0.524795 1.949212,1.049573 2.923818,1.57436 1.386967,-0.899652 2.773879,-1.799269 4.160817,-2.698906 1.949251,-3.411188 3.898423,-6.822241 5.847635,-10.233361 2.549021,-6.072666 5.097941,-12.145089 7.646901,-18.217631 0.7872,-4.160901 1.57437,-8.321635 2.36155,-12.482451 0.44983,-2.54902 0.89964,-5.097939 1.34946,-7.646908 -0.56229,-2.511534 -1.12455,-5.022967 -1.68682,-7.534452 -1.94925,-1.724338 -3.89843,-3.448603 -5.84764,-5.172906 -2.661475,-0.524799 -5.322845,-1.049576 -7.98427,-1.574364 -3.598614,0.149942 -7.197087,0.299879 -10.795632,0.449819 -0.824683,0.149942 -1.649333,0.299878 -2.474,0.449818 z"
       transform="matrix(0.36523918,0,0,0.37992205,-17.930779,18.771759)" /><path
       style="opacity:0.749367;mix-blend-mode:normal;fill:#53ff00;fill-opacity:1;stroke:none;stroke-width:0;stroke-dasharray:none;stroke-opacity:1;filter:url(#filter11-8)"
       d="m 29.61237,37.512488 c -0.627824,1.778835 -1.307968,4.970276 -1.43876,8.449505 -0.130793,3.479228 0.287748,7.246098 0.313904,11.719397 0.02616,4.473298 -0.340068,9.652744 0.183133,12.216358 0.523202,2.563613 1.935778,2.511296 3.034478,1.307943 1.098699,-1.203353 1.883465,-3.557647 2.799052,-5.964329 0.915587,-2.406683 1.96194,-4.865612 2.642086,-7.376935 0.680145,-2.511322 0.994051,-5.074885 0.967888,-7.769325 -0.02616,-2.69444 -0.392387,-5.519592 -1.203339,-7.795471 -0.810952,-2.275879 -2.066575,-4.002362 -3.060638,-5.127219 -0.994063,-1.124857 -1.726509,-1.648033 -2.380498,-1.726507 -0.65399,-0.07848 -1.229482,0.287748 -1.857306,2.066583 z"
       id="path3-2"
       inkscape:path-effect="#path-effect3-9"
       inkscape:original-d="m 29.664689,36.099884 c -0.680143,3.191439 -1.360287,6.38288 -2.04043,9.574319 0.418558,3.767018 0.837099,7.533888 1.255649,11.300833 -0.366239,5.179652 -0.732462,10.359098 -1.098693,15.538645 1.412634,-0.05232 2.82521,-0.104637 4.237813,-0.156956 0.784796,-2.354387 1.569561,-4.708681 2.354342,-7.06302 1.046392,-2.459027 2.092745,-4.917956 3.13912,-7.376933 0.313917,-2.563667 0.627824,-5.12723 0.941736,-7.690844 -0.366239,-2.825266 -0.732462,-5.650418 -1.098693,-8.475626 -1.255672,-1.726551 -2.511298,-3.453032 -3.766944,-5.179549 -0.732478,-0.523198 -1.464924,-1.046374 -2.197386,-1.569561 -0.575516,0.366239 -1.151008,0.732462 -1.726514,1.098692 z"
       transform="matrix(0.39318051,0,0,0.39318051,-0.83788815,17.117027)" /><path
       style="opacity:0.756798;mix-blend-mode:normal;fill:url(#linearGradient2);stroke:none;stroke-width:0;stroke-dasharray:none;stroke-opacity:1;filter:url(#filter12)"
       d="m 22.942249,28.09758 c -1.663672,1.109115 -4.169451,2.71117 -5.91529,5.3813 -1.745839,2.67013 -2.731699,6.408181 -2.649531,11.95383 0.08217,5.54565 1.232339,12.898524 2.54686,18.649533 1.314522,5.751008 2.793312,9.899836 3.902434,13.884473 1.109123,3.984637 1.848518,7.804844 2.978187,9.345274 1.129669,1.54043 2.649538,0.801035 4.23107,-0.636728 1.581532,-1.437763 3.224632,-3.573793 3.820264,-4.107802 0.595631,-0.534008 0.143778,0.534009 -0.636721,2.136085 -0.780499,1.602077 -1.889592,3.738108 -2.916559,5.566109 -1.026968,1.828 -1.971751,3.347868 -2.916562,4.49807 -0.944812,1.150201 -1.889594,1.930673 -2.834405,2.444155 -0.944811,0.513482 -1.889594,0.759947 -2.896024,-2e-5 -1.00643,-0.759967 -2.074445,-2.526298 -3.224651,-4.703476 C 15.281115,90.331204 14.04879,87.74332 12.878046,84.744568 11.707303,81.745816 10.59821,78.336382 9.6328611,75.009004 8.6675119,71.681627 7.8459619,68.436505 6.8806099,64.451859 5.9152578,60.467213 4.8061652,55.7433 4.0667515,52.354317 3.3273379,48.965334 2.9576402,46.911458 2.7317084,44.878059 2.5057767,42.844661 2.4236217,40.831865 2.7111766,38.695768 c 0.2875548,-2.136096 0.9447951,-4.39536 1.7458316,-6.059043 0.8010366,-1.663683 1.7458193,-2.731698 2.7317102,-3.676508 0.9858909,-0.94481 2.0128287,-1.766361 3.4300486,-2.505777 1.417221,-0.739416 3.224632,-1.396657 5.31965,-1.745823 2.095019,-0.349166 4.477515,-0.390244 6.243895,-0.164308 1.76638,0.225936 2.91655,0.718866 3.080855,1.27343 0.164305,0.554564 -0.657245,1.170726 -2.320918,2.279841 z"
       id="path2"
       inkscape:path-effect="#path-effect2-7"
       inkscape:original-d="m 23.784355,27.60464 c -2.505778,1.602055 -5.011557,3.20411 -7.517335,4.806164 -0.985899,3.738206 -1.97176,7.476257 -2.95764,11.214386 1.150216,7.35317 2.300387,14.706044 3.45058,22.059066 1.47885,4.148995 2.95764,8.297823 4.43646,12.446736 0.739425,3.820361 1.47882,7.640568 2.21823,11.460853 1.519929,-0.739423 3.039797,-1.47882 4.559695,-2.21823 1.643166,-2.136116 3.286268,-4.272145 4.929399,-6.408219 -0.451868,1.068057 -0.903721,2.136074 -1.355584,3.20411 -1.109136,2.136116 -2.21823,4.272147 -3.327345,6.408221 -0.944819,1.519928 -1.889603,3.039795 -2.834405,4.559694 -0.94482,0.780505 -1.889603,1.560976 -2.834405,2.341465 -0.94482,0.246475 -1.889603,0.49294 -2.834405,0.73941 C 18.649542,96.451892 17.581527,94.685561 16.51349,92.919192 15.281116,90.331204 14.04879,87.74332 12.81644,85.155385 11.707303,81.745816 10.59821,78.336382 9.4890951,74.92688 8.667512,71.681627 7.8459617,68.436505 7.024395,65.191316 5.9152578,60.467213 4.8061649,55.7433 3.6970501,51.019291 3.3273375,48.965334 2.95764,46.911458 2.587935,44.85754 2.5057767,42.844661 2.4236217,40.831865 2.341465,38.819026 2.9987316,36.559672 3.6559717,34.300408 4.313225,32.041099 5.2580457,30.973043 6.2028284,29.905028 7.14763,28.83699 c 1.0269789,-0.821584 2.0539168,-1.643134 3.080875,-2.4647 1.807483,-0.657266 3.614894,-1.314506 5.42234,-1.97176 2.382591,-0.04108 4.765087,-0.08216 7.14763,-0.123235 1.150217,0.49295 2.300387,0.98588 3.45058,1.47882 -0.821583,0.616188 -1.643133,1.23235 -2.4647,1.848525 z"
       transform="matrix(0.32330685,0,0,0.32330685,7.750742,22.608754)" /><path
       style="opacity:0.74936702;mix-blend-mode:normal;fill:#53ff00;fill-opacity:1;stroke:none;stroke-width:0;stroke-dasharray:none;stroke-opacity:1;filter:url(#filter11)"
       d="m 29.61237,37.512488 c -0.627824,1.778835 -1.307968,4.970276 -1.43876,8.449505 -0.130793,3.479228 0.287748,7.246098 0.313904,11.719397 0.02616,4.473298 -0.340068,9.652744 0.183133,12.216358 0.523202,2.563613 1.935778,2.511296 3.034478,1.307943 1.098699,-1.203353 1.883465,-3.557647 2.799052,-5.964329 0.915587,-2.406683 1.96194,-4.865612 2.642086,-7.376935 0.680145,-2.511322 0.994051,-5.074885 0.967888,-7.769325 -0.02616,-2.69444 -0.392387,-5.519592 -1.203339,-7.795471 -0.810952,-2.275879 -2.066575,-4.002362 -3.060638,-5.127219 -0.994063,-1.124857 -1.726509,-1.648033 -2.380498,-1.726507 -0.65399,-0.07848 -1.229482,0.287748 -1.857306,2.066583 z"
       id="path3"
       inkscape:path-effect="#path-effect3"
       inkscape:original-d="m 29.664689,36.099884 c -0.680143,3.191439 -1.360287,6.38288 -2.04043,9.574319 0.418558,3.767018 0.837099,7.533888 1.255649,11.300833 -0.366239,5.179652 -0.732462,10.359098 -1.098693,15.538645 1.412634,-0.05232 2.82521,-0.104637 4.237813,-0.156956 0.784796,-2.354387 1.569561,-4.708681 2.354342,-7.06302 1.046392,-2.459027 2.092745,-4.917956 3.13912,-7.376933 0.313917,-2.563667 0.627824,-5.12723 0.941736,-7.690844 -0.366239,-2.825266 -0.732462,-5.650418 -1.098693,-8.475626 -1.255672,-1.726551 -2.511298,-3.453032 -3.766944,-5.179549 -0.732478,-0.523198 -1.464924,-1.046374 -2.197386,-1.569561 -0.575516,0.366239 -1.151008,0.732462 -1.726514,1.098692 z"
       transform="matrix(0.39318051,0,0,0.39318051,4.7389554,20.78039)" /><path
       style="opacity:1;fill:#565f36;fill-opacity:1;stroke:#232710;stroke-width:1.3;stroke-dasharray:none;stroke-opacity:1"
       d="m 16.529825,25.344649 c -1.752293,-1.352647 -2.593017,-3.019341 -3.961411,-2.787906 -1.368394,0.231436 -3.2644315,2.361 -4.7499234,2.271677 -1.485492,-0.08932 -2.5604169,-2.397505 -4.5834732,-1.501817 -2.0230562,0.895688 -4.9940586,4.995108 -6.2446247,5.268888 -1.2505662,0.27378 -0.7805499,-3.278167 0.5304532,-6.099423 1.3110031,-2.821257 3.46289691,-4.911668 5.9530237,-5.895409 2.4901268,-0.983742 5.3183305,-0.860777 7.0091444,-0.860778 1.690813,-1e-6 2.244149,-0.122965 1.373471,-0.589993 C 10.985806,14.68286 8.6911531,13.871796 7.6314568,12.70287 6.5717604,11.533944 6.7470557,10.00718 5.8039412,8.3529979 4.8608268,6.6988157 2.7993539,4.9172797 1.518036,3.4929669 0.23671803,2.0686541 -0.26435576,1.0016608 0.19677346,0.60201546 0.65790267,0.20237012 2.0812361,0.47008727 5.1085337,1.9956026 8.1358312,3.521118 12.766941,6.304346 15.287832,9.2863749 c 2.52089,2.9820291 2.931339,6.1626091 3.013596,7.4147621 0.08226,1.252153 -0.163668,0.575854 -0.252008,-0.504572 -0.08834,-1.080426 -0.01908,-2.564899 0.442048,-3.671608 0.461129,-1.10671 1.314124,-1.835633 3.431443,-2.6612293 2.117318,-0.8255967 5.498915,-1.7478505 6.201184,-1.5621974 0.702268,0.1856532 -1.274688,1.4791377 -2.415348,3.0529987 -1.14066,1.573862 -1.444887,3.427949 -1.806376,4.648022 -0.361489,1.220073 -0.780243,1.806125 -1.238194,2.50721 -0.457951,0.701085 -0.955079,1.517171 0.337453,0.647252 1.292532,-0.869919 4.374654,-3.4258 7.971469,-3.333574 3.596814,0.09223 7.708237,2.832579 9.345315,4.341239 1.637078,1.50866 0.799789,1.785588 -1.059264,1.433003 -1.859054,-0.352585 -4.739664,-1.334636 -7.579713,-1.257908 -2.84005,0.07673 -5.639255,1.212249 -7.100371,2.425614 -1.461115,1.213366 -1.584081,2.504503 -1.522595,3.518996 0.06149,1.014492 0.307417,1.752282 -0.901569,1.601882 -1.208985,-0.150401 -3.872785,-1.188969 -5.625077,-2.541616 z"
       id="path17"
       inkscape:path-effect="#path-effect17"
       inkscape:original-d="m 15.618262,25.658706 c -0.840729,-1.666704 -1.681455,-3.333398 -2.522188,-5.00011 -1.896054,2.129583 -3.7920914,4.259147 -5.6881351,6.388718 -1.0749403,-2.308216 -2.1498653,-4.616399 -3.2248232,-6.924653 -2.9711546,4.09963 -5.9421572,8.19905 -8.9133242,12.298698 0.470035,-3.552088 0.9400513,-7.104035 1.4100769,-10.656052 2.1519802,-2.090496 4.30387428,-4.180907 6.4558113,-6.27136 2.8283167,0.12297 5.6565204,0.245936 8.4847803,0.368903 0.553367,-0.12297 1.106703,-0.245934 1.660066,-0.368903 C 10.985806,14.68286 8.691153,13.871796 6.3964639,13.060719 6.5717604,11.533944 6.7470557,10.00718 6.922353,8.4803978 4.8608268,6.6988157 2.7993539,4.9172797 0.73780699,3.1356797 0.23671802,2.0686541 -0.26435577,1.0016608 -0.76543691,-0.06534819 0.65790267,0.20237012 2.0812361,0.47008726 3.5045832,0.73780699 8.1358312,3.521118 12.766941,6.304346 17.398258,9.0876984 c 0.410464,3.1807056 0.820912,6.3612856 1.231369,9.5419286 -0.245941,-0.676337 -0.491867,-1.352636 -0.737807,-2.02897 0.06926,-1.484518 0.138519,-2.968991 0.207778,-4.453484 0.852999,-0.728926 1.705994,-1.457849 2.558998,-2.1867785 3.381633,-0.9222635 6.76323,-1.8445175 10.144846,-2.7667762 -1.977079,1.2935651 -3.954035,2.5870494 -5.931118,3.8806177 -0.304237,1.854155 -0.608464,3.708242 -0.912692,5.562341 -0.418751,0.586047 -0.837504,1.172099 -1.256262,1.758157 -0.497145,0.816112 -0.994272,1.632198 -1.491419,2.448314 3.082211,-2.555954 6.164333,-5.111835 9.246507,-7.667758 4.111455,2.740375 8.222878,5.480728 12.334348,8.221113 -0.837314,0.276935 -1.674603,0.553862 -2.511929,0.830802 -2.880781,-0.982109 -5.761391,-1.96416 -8.642173,-2.94627 -2.799317,1.135566 -5.598522,2.271087 -8.397783,3.40663 -0.122971,1.291188 -0.245936,2.582325 -0.368904,3.873487 0.245941,0.737823 0.491871,1.475613 0.737807,2.213422 -2.663907,-1.03861 -5.327707,-2.077178 -7.991562,-3.115768 z"
       transform="matrix(0.31561126,0.05937032,-0.05937032,0.31561126,10.973429,22.99119)"
       sodipodi:nodetypes="cccccccccccccccccccccccccccccccc" /><path
       style="opacity:1;fill:#76834e;fill-opacity:1;stroke:none;stroke-width:1.3;stroke-dasharray:none;stroke-opacity:1"
       d="m 28.134455,27.784673 c 0.142674,-0.142674 0.142674,-0.142674 0.142674,-0.142674 1.086166,-0.745588 2.172332,-1.491177 3.534658,-1.979033 1.362327,-0.487857 3.000746,-0.717972 4.376874,-0.685752 1.376129,0.03222 2.489887,0.326767 3.819995,0.888268 1.330108,0.561501 2.876484,1.389916 3.819978,1.965219 0.943495,0.575303 1.284065,0.897463 1.196614,0.948088 -0.08745,0.05062 -0.602908,-0.170287 -1.454364,-0.510869 -0.851455,-0.340582 -2.03885,-0.800813 -3.129627,-1.17361 -1.090778,-0.372797 -2.084876,-0.658139 -3.037582,-0.828429 -0.952707,-0.170289 -1.863961,-0.225516 -2.641774,-0.193298 -0.777813,0.03222 -1.422134,0.151878 -2.048066,0.280746 -0.625933,0.128869 -1.233438,0.266938 -1.762717,0.441831 -0.529279,0.174892 -0.980306,0.386598 -1.403732,0.630528 -0.423425,0.24393 -0.819222,0.520068 -1.145995,0.860649 -0.326772,0.340582 -0.584501,0.745585 -0.759393,1.044743 -0.174891,0.299157 -0.266937,0.492455 -0.289949,0.335968 -0.02301,-0.156487 0.02301,-0.662741 0.1887,-1.05855 0.16569,-0.395808 0.451032,-0.681151 0.593706,-0.823825 z"
       id="path18"
       inkscape:path-effect="#path-effect18"
       inkscape:original-d="m 28.277129,27.641999 c 0,0 0,0 0,0 0,0 2.172332,-1.491177 3.258497,-2.236765 1.638488,-0.230125 3.276907,-0.46024 4.915361,-0.69036 1.113803,0.294559 2.227561,0.589107 3.34134,0.88366 1.546437,0.828449 3.092813,1.656864 4.639218,2.485296 0.340585,0.322172 0.681154,0.644334 1.021731,0.966502 -0.515478,-0.22092 -1.030936,-0.441831 -1.546405,-0.662745 -1.187442,-0.460248 -2.374837,-0.92048 -3.562255,-1.38072 -0.994137,-0.285353 -1.988235,-0.570696 -2.982354,-0.856045 -0.911294,-0.05523 -1.822548,-0.110458 -2.733823,-0.165686 -0.644351,0.119664 -1.288672,0.239324 -1.933009,0.358987 -0.607528,0.138075 -1.215033,0.276143 -1.822548,0.414216 -0.451043,0.211714 -0.90207,0.42342 -1.353106,0.635129 -0.395814,0.276151 -0.791612,0.552289 -1.187418,0.828432 -0.257738,0.405019 -0.515469,0.810022 -0.773202,1.215033 -0.09205,0.193304 -0.184097,0.386601 -0.276143,0.579903 0.04602,-0.506275 0.09205,-1.012529 0.13807,-1.51879 0.285356,-0.285356 0.570698,-0.570699 0.856046,-0.856047 z"
       transform="matrix(0.32114685,0,0,0.28537607,7.7963204,23.727673)" /><path
       style="opacity:1;fill:#76834e;fill-opacity:1;stroke:none;stroke-width:1.3;stroke-dasharray:none;stroke-opacity:1"
       d="m 34.54719,15.022813 c -0.184814,0.132011 -0.554445,0.396032 -0.920778,0.666657 -0.366332,0.270624 -0.729354,0.547841 -1.052783,0.831667 -0.323429,0.283826 -0.607247,0.574245 -0.848168,0.904275 -0.240921,0.33003 -0.438933,0.699653 -0.613849,1.01318 -0.174916,0.313528 -0.326725,0.570943 -0.504942,0.920776 -0.178217,0.349833 -0.382829,0.79206 -0.590748,1.191396 -0.207918,0.399335 -0.419131,0.755757 -0.607248,1.036282 -0.188117,0.280524 -0.353127,0.485138 -0.574248,0.742561 -0.22112,0.257423 -0.498337,0.567642 -0.719457,0.815164 -0.22112,0.247523 -0.38613,0.432334 -0.488438,0.633651 -0.102309,0.201318 -0.141911,0.419133 -0.191416,0.369625 -0.0495,-0.04951 -0.108908,-0.366326 -0.0231,-0.749162 0.08581,-0.382835 0.316823,-0.831661 0.59735,-1.221097 0.280526,-0.389436 0.610546,-0.719456 0.917474,-1.145195 0.306927,-0.425739 0.590744,-0.947171 0.795361,-1.498321 0.204618,-0.55115 0.330025,-1.131986 0.478539,-1.564324 0.148514,-0.432338 0.320125,-0.716154 0.551147,-1.013182 0.231022,-0.297027 0.521439,-0.607246 0.808565,-0.825065 0.287126,-0.217819 0.570944,-0.343226 0.815165,-0.422433 0.24422,-0.07921 0.448833,-0.11221 0.600645,-0.155113 0.151813,-0.0429 0.250822,-0.09571 0.534649,-0.20792 0.283828,-0.11221 0.752456,-0.28382 0.986775,-0.369627 0.234319,-0.08581 0.234319,-0.08581 0.0495,0.0462 z"
       id="path19"
       inkscape:path-effect="#path-effect19"
       inkscape:original-d="m 34.732005,14.890803 c -0.369629,0.264021 -0.73926,0.528042 -1.10889,0.792064 -0.363035,0.277228 -0.726057,0.554444 -1.089086,0.831667 -0.283829,0.290429 -0.567648,0.580847 -0.851469,0.87127 -0.198022,0.369637 -0.396034,0.73926 -0.594048,1.10889 -0.151815,0.257426 -0.303625,0.514841 -0.455438,0.772262 -0.204621,0.442245 -0.409233,0.884472 -0.613849,1.326707 -0.211222,0.356436 -0.422434,0.712858 -0.633651,1.069287 -0.165017,0.20462 -0.330028,0.409233 -0.49504,0.613849 -0.277228,0.310231 -0.554445,0.62045 -0.831668,0.930675 -0.165018,0.184819 -0.330028,0.36963 -0.49504,0.554445 -0.0396,0.217822 -0.07921,0.435635 -0.118809,0.653453 -0.05941,-0.316832 -0.118811,-0.633651 -0.178215,-0.950477 0.231023,-0.448845 0.462036,-0.897672 0.693057,-1.346509 0.330034,-0.330033 0.660054,-0.660053 0.990079,-0.990079 0.283829,-0.521453 0.567645,-1.042885 0.851469,-1.564327 0.125412,-0.580858 0.25082,-1.161694 0.376229,-1.742541 0.17162,-0.283828 0.343229,-0.567645 0.514843,-0.851468 0.29043,-0.310232 0.580847,-0.620451 0.87127,-0.930676 0.283829,-0.125412 0.567647,-0.25082 0.851469,-0.37623 0.20462,-0.033 0.409233,-0.066 0.613849,-0.09901 0.09901,-0.0528 0.198017,-0.105608 0.297024,-0.158413 0.468648,-0.171617 0.937276,-0.343227 1.405914,-0.514841 z"
       transform="matrix(0.32114685,0,0,0.32114685,7.7963204,22.66447)" /><path
       style="opacity:1;fill:#76834e;fill-opacity:1;stroke:none;stroke-width:1.3;stroke-dasharray:none;stroke-opacity:1"
       d="m 10.853733,2.3974705 c 0.07537,0.134264 0.688738,0.5278226 1.326795,1.1685074 0.638057,0.6406848 1.300737,1.5284261 1.998342,2.1619959 0.697605,0.6335699 1.430051,1.0128918 2.023614,1.5453927 0.593563,0.532501 1.048173,1.2181185 1.470859,1.8155558 0.422685,0.5974374 0.813397,1.1066257 1.307829,1.7174307 0.494432,0.610806 1.092525,1.323154 1.479118,1.798139 0.386593,0.474985 0.561641,0.71255 1.154898,1.971634 0.593257,1.259083 1.604639,3.539507 1.97929,5.012866 0.37465,1.473359 0.1125,2.139418 0.08145,2.278644 -0.03105,0.139226 0.169012,-0.248387 0.31906,-0.917356 0.150047,-0.668968 0.250077,-1.619245 0.131286,-2.732105 -0.11879,-1.112861 -0.456389,-2.388233 -0.869022,-3.451073 -0.412634,-1.062841 -0.900277,-1.913089 -1.550488,-2.84464 C 21.056557,10.990911 20.24382,9.9781151 19.168471,8.8652553 18.093121,7.7523955 16.75523,6.5395412 15.467316,5.4641963 14.179402,4.3888514 12.94154,3.4510772 12.09127,2.9196601 11.241,2.388243 10.778365,2.2632066 10.853733,2.3974705 Z"
       id="path20"
       inkscape:path-effect="#path-effect20"
       inkscape:original-d="m 10.31572,2.1381675 c 0.613382,0.3935669 1.226751,0.7871257 1.840145,1.1807003 0.66272,0.8877949 1.3254,1.7755362 1.98812,2.6633312 0.73249,0.3793447 1.464936,0.7586666 2.197426,1.1380112 0.454636,0.6856574 0.909246,1.3712749 1.363882,2.0569316 0.390735,0.5092178 0.781448,1.0184062 1.172183,1.5276252 0.598129,0.712391 1.196221,1.42474 1.794349,2.137132 0.175058,0.237578 0.350106,0.475143 0.525164,0.712722 1.011456,2.280588 2.022838,4.561012 3.034306,6.841628 -0.262167,0.666102 -0.524317,1.332161 -0.786476,1.998242 0.200066,-0.387629 0.400125,-0.775242 0.600187,-1.162863 0.100033,-0.950316 0.200063,-1.900593 0.300094,-2.85089 C 24.007488,17.105314 23.669889,15.829942 23.332284,14.554544 22.844622,13.704261 22.356979,12.854013 21.869327,12.003747 21.056557,10.990911 20.24382,9.978115 19.431066,8.9652987 18.093121,7.7523958 16.75523,6.5395416 15.417313,5.3266628 14.179402,4.3888514 12.94154,3.4510773 11.703654,2.5132846 11.241,2.388243 10.778365,2.2632065 10.31572,2.1381675 Z"
       sodipodi:nodetypes="cccccccccccccccccc"
       transform="matrix(0.32114685,0,0,0.32114685,7.7963204,22.66447)" /><path
       style="opacity:1;fill:#76834e;fill-opacity:1;stroke:none;stroke-width:1.3;stroke-dasharray:none;stroke-opacity:1"
       d="m 19.099515,19.34756 c -0.106306,0.141741 -0.673267,0.460656 -1.783583,0.631926 -1.110317,0.17127 -2.763921,0.194893 -4.258114,0.171269 -1.494193,-0.02362 -2.828888,-0.09449 -3.8151711,0.118123 -0.9862831,0.212615 -1.6241019,0.708696 -2.2973758,1.293382 -0.673274,0.584686 -1.3819616,1.257939 -2.2560376,2.279665 -0.874076,1.021725 -1.913485,2.391855 -2.338704,2.698951 -0.4252189,0.307096 -0.2362356,-0.448837 0.2067101,-1.322912 0.4429457,-0.874076 1.139822,-1.866239 1.9016847,-2.752124 0.7618627,-0.885885 1.5886648,-1.665441 2.6458246,-2.356431 1.0571598,-0.690991 2.3446089,-1.293375 3.4431061,-1.54142 1.098497,-0.248045 2.007979,-0.141741 3.023797,0.0059 1.015817,0.147648 2.137905,0.336631 2.976541,0.460654 0.838636,0.124024 1.393775,0.183081 1.848529,0.194893 0.454754,0.01181 0.809098,-0.02362 0.702793,0.118117 z"
       id="path21"
       inkscape:path-effect="#path-effect21"
       inkscape:original-d="m 19.560171,19.170385 c -0.566962,0.318915 -1.133923,0.637831 -1.700885,0.956747 -1.653671,0.02362 -3.307275,0.04725 -4.960913,0.07087 -1.334748,-0.07087 -2.669443,-0.14174 -4.0041649,-0.21261 -0.6378445,0.496101 -1.2756634,0.992182 -1.913495,1.488274 -0.708716,0.67328 -1.4174038,1.346533 -2.1261056,2.0198 -1.03945,1.370184 -2.0788588,2.740314 -3.118288,4.11047 0.1889909,-0.755964 0.3779743,-1.511897 0.5669615,-2.267845 0.696904,-0.992203 1.3937802,-1.984366 2.0906705,-2.976548 0.8268353,-0.779588 1.6536376,-1.559144 2.4804563,-2.338716 1.2875008,-0.602409 2.5749501,-1.204793 3.8624252,-1.80719 0.909519,0.106308 1.819001,0.212611 2.728502,0.318916 1.122134,0.188991 2.244222,0.377974 3.366334,0.566961 0.55516,0.05906 1.110299,0.118118 1.665449,0.177176 0.354358,-0.03544 0.708702,-0.07087 1.063053,-0.106305 z"
       transform="matrix(0.32114685,0,0,0.32114685,7.7963204,22.66447)" /><path
       style="opacity:1;fill:#313a23;fill-opacity:1;stroke:none;stroke-width:1.3;stroke-dasharray:none;stroke-opacity:1"
       d="m 29.870143,24.97194 c 0.804243,-0.149532 2.64713,-0.715331 4.053555,-1.038645 1.406424,-0.323315 2.376346,-0.404142 3.887858,0.105088 1.511512,0.509231 3.564512,1.608475 4.182841,1.786291 0.61833,0.177815 -0.19802,-0.565792 -1.111392,-1.180093 C 39.969633,24.030279 38.9593,23.545319 38.082304,23.23817 37.205308,22.93102 36.4617,22.801697 35.746362,22.797657 c -0.715339,-0.004 -1.402366,0.1172 -2.089415,0.278859 -0.687049,0.161659 -1.374077,0.363726 -2.061124,0.62238 -0.687048,0.258654 -1.374075,0.573878 -1.834801,0.864864 -0.460725,0.290985 -0.695122,0.557713 0.109121,0.40818 z"
       id="path22"
       inkscape:path-effect="#path-effect22"
       inkscape:original-d="m 28.831497,25.388207 c 1.842889,-0.565799 3.685776,-1.131598 5.528665,-1.697397 0.96996,-0.08083 1.939882,-0.161657 2.909824,-0.242485 2.053082,1.099288 4.106082,2.198533 6.159124,3.297801 C 42.612728,26.002488 41.796377,25.258882 40.98001,24.51526 39.969633,24.03028 38.9593,23.545319 37.948944,23.060348 37.205308,22.93102 36.4617,22.801697 35.71808,22.672372 c -0.687057,0.121245 -1.374084,0.242485 -2.061125,0.363728 -0.687057,0.202075 -1.374085,0.404142 -2.061125,0.606213 -0.687055,0.315237 -1.374082,0.630462 -2.061126,0.945693 -0.234407,0.266739 -0.468804,0.533467 -0.703207,0.800201 z"
       transform="matrix(0.32114685,0,0,0.32114685,7.7729579,22.602171)" /><path
       style="opacity:1;fill:#313a23;fill-opacity:1;stroke:none;stroke-width:1.3;stroke-dasharray:none;stroke-opacity:1"
       d="m 25.290233,21.619429 c -0.0032,-0.04434 -0.0095,-0.133025 0.08869,-0.456087 0.09819,-0.323062 0.300884,-0.880481 0.481417,-1.45692 0.180533,-0.57644 0.338891,-1.171865 0.544762,-1.643783 0.205871,-0.471918 0.459244,-0.820306 0.79814,-1.140198 0.338896,-0.319892 0.763296,-0.611272 1.251053,-0.791803 0.487757,-0.180532 1.038841,-0.250209 2.074536,-0.433911 1.035696,-0.183701 2.555929,-0.481413 3.072181,-0.623938 0.516252,-0.142524 0.02851,-0.129854 -0.544763,-0.07918 -0.573272,0.05068 -1.232041,0.139358 -1.919335,0.234375 -0.687293,0.09502 -1.40307,0.196367 -1.96367,0.307221 -0.560601,0.110853 -0.965999,0.231205 -1.323898,0.36423 -0.357899,0.133025 -0.668279,0.278713 -0.94383,0.500421 -0.27555,0.221709 -0.516252,0.519421 -0.712621,0.85515 -0.196369,0.335729 -0.348393,0.709453 -0.456079,0.988171 -0.107686,0.278717 -0.171029,0.462411 -0.190032,0.712625 -0.019,0.250213 0.0063,0.566928 -0.02851,1.029348 -0.03484,0.46242 -0.129856,1.070513 -0.177364,1.374566 -0.04751,0.304053 -0.04751,0.304049 -0.05068,0.25971 z"
       id="path23"
       transform="matrix(0.32114685,0,0,0.32114685,7.7963204,22.652265)"
       inkscape:original-d="m 25.2934,21.663768 c -0.0063,-0.08868 -0.01267,-0.177364 -0.019,-0.266046 0.202706,-0.557442 0.405404,-1.114861 0.608106,-1.672291 0.158364,-0.595449 0.316722,-1.190874 0.475083,-1.786311 0.25338,-0.3484 0.506753,-0.696788 0.760131,-1.045181 0.424415,-0.29139 0.848815,-0.582769 1.27322,-0.874153 0.551109,-0.06968 1.102193,-0.139357 1.653289,-0.209036 1.520295,-0.297724 3.040528,-0.595437 4.560794,-0.893155 -0.487762,0.01267 -0.975505,0.02534 -1.463257,0.03801 -0.658793,0.08868 -1.317561,0.177365 -1.976342,0.266047 -0.715806,0.101353 -1.431583,0.202702 -2.147374,0.304053 -0.40541,0.120356 -0.810808,0.240708 -1.21621,0.361062 -0.310396,0.145695 -0.620776,0.291384 -0.931164,0.437076 -0.240713,0.297725 -0.481415,0.595437 -0.722124,0.893156 -0.152029,0.373739 -0.304053,0.747463 -0.456079,1.121195 -0.06335,0.183702 -0.126689,0.367397 -0.190033,0.551095 0.02534,0.316729 0.05067,0.633444 0.07601,0.950166 -0.09502,0.608118 -0.190033,1.216211 -0.285049,1.824317 z"
       inkscape:path-effect="#path-effect23" /><path
       style="opacity:1;fill:#313a23;fill-opacity:1;stroke:none;stroke-width:1.3;stroke-dasharray:none;stroke-opacity:1"
       d="m 10.435981,2.2772292 c 0.02217,0.034839 0.06651,0.1045175 0.243879,0.4212455 0.177368,0.316728 0.487749,0.8804812 0.896325,1.5202665 0.408576,0.6397852 0.915321,1.3555618 1.437917,2.1188694 0.522597,0.7633076 1.061013,1.5740988 1.422078,2.2835616 0.361064,0.7094628 0.544759,1.3175565 0.690452,1.9446718 0.145694,0.627116 0.253377,1.273215 0.43391,1.938338 0.180534,0.665122 0.433907,1.349228 1.016684,2.020685 0.582777,0.671456 1.494917,1.330224 2.141034,1.865488 0.646116,0.535264 1.026174,0.946994 1.146527,1.27322 0.120353,0.326226 -0.019,0.566929 -0.145691,0.557425 -0.12669,-0.0095 -0.240708,-0.269211 -0.535264,-0.554264 C 18.889276,17.381684 18.414203,17.071303 18.008796,16.770414 17.603389,16.469525 17.26767,16.178147 16.884432,15.839251 16.501195,15.500355 16.070462,15.113962 15.76324,14.664212 15.456018,14.214462 15.272323,13.701383 15.16147,13.19779 15.050618,12.694198 15.012612,12.200122 14.955601,11.715534 14.89859,11.230945 14.822578,10.755871 14.680051,10.264947 14.537524,9.7740231 14.328492,9.2672784 14.094116,8.8016933 13.859739,8.3361083 13.600032,7.9117094 13.270637,7.3986143 12.941243,6.8855192 12.542181,6.2837595 12.212788,5.7833352 11.883395,5.2829109 11.623688,4.8838492 11.373476,4.4531031 11.123263,4.0223569 10.88256,3.5599523 10.721031,3.2400617 10.559502,2.9201711 10.477156,2.7428106 10.439149,2.6002856 c -0.03801,-0.1425249 -0.03167,-0.2502104 -0.02851,-0.304053 0.0032,-0.053843 0.0032,-0.053843 0.02534,-0.019003 z"
       id="path24"
       inkscape:path-effect="#path-effect24"
       inkscape:original-d="m 10.413811,2.24239 c 0.04434,0.069679 0.08868,0.1393576 0.133023,0.2090364 0.310394,0.5637761 0.620775,1.1275293 0.931162,1.6912942 0.506766,0.7158054 1.01351,1.4315824 1.520265,2.1473734 0.538438,0.8108241 1.076854,1.6216154 1.615281,2.4324231 0.183702,0.608118 0.367397,1.2162117 0.551096,1.8243169 0.107687,0.646126 0.215371,1.292225 0.323056,1.938338 0.253382,0.684132 0.506755,1.368238 0.760132,2.052357 0.912177,0.658794 1.824317,1.317562 2.736476,1.976343 0.380074,0.411747 0.760132,0.823477 1.140198,1.235215 -0.13936,0.240714 -0.278715,0.481417 -0.418072,0.722126 -0.114022,-0.259717 -0.22804,-0.519424 -0.34206,-0.779136 -0.475092,-0.310393 -0.950165,-0.620774 -1.425248,-0.931162 -0.335731,-0.29139 -0.67145,-0.582768 -1.007175,-0.874152 -0.43075,-0.386408 -0.861483,-0.772801 -1.292225,-1.159201 -0.183702,-0.5131 -0.367397,-1.026179 -0.551095,-1.539268 -0.03801,-0.494096 -0.07601,-0.988172 -0.11402,-1.482258 -0.07601,-0.475092 -0.152027,-0.950165 -0.22804,-1.425248 C 14.537524,9.7740233 14.328492,9.2672785 14.119456,8.7605239 13.859739,8.3361082 13.600032,7.9117094 13.34032,7.4873024 12.941243,6.885519 12.542181,6.2837596 12.143112,5.6819884 11.883395,5.282911 11.623688,4.8838495 11.363977,4.48478 11.123263,4.0223572 10.882559,3.5599526 10.641851,3.0975387 10.559502,2.920171 10.477156,2.7428105 10.394808,2.5654462 c 0.0063,-0.1076875 0.01267,-0.2153708 0.019,-0.3230562 z"
       transform="matrix(0.31917223,0,0,0.32114685,7.7981078,22.701998)" /><path
       style="opacity:1;fill:#323a23;fill-opacity:1;stroke:none;stroke-width:1.3;stroke-dasharray:none;stroke-opacity:1"
       d="m 26.899666,31.86947 c 0,0 0,0 0,0 -0.812217,-0.394046 -1.624434,-0.788092 -2.39645,-1.282666 -0.772016,-0.494575 -1.503801,-1.089652 -2.102916,-1.632475 -0.599115,-0.542823 -1.065528,-1.033361 -1.612374,-1.68475 -0.546845,-0.65139 -1.174089,-1.463592 -1.993961,-2.031069 -0.819871,-0.567477 -1.832316,-0.890201 -2.61003,-0.961073 -0.777713,-0.07087 -1.320653,0.110108 -1.874921,-0.116128 -0.554268,-0.226235 -1.119831,-0.859665 -1.300812,-1.232945 -0.180982,-0.37328 0.02262,-0.486392 0.56558,-0.441144 0.54296,0.04525 1.425237,0.24885 2.307541,0.3959 0.882305,0.14705 1.764582,0.23754 2.533769,0.452462 0.769187,0.214921 1.42524,0.554259 2.092624,1.176399 0.667383,0.62214 1.346059,1.52704 1.515727,1.481785 0.169669,-0.04526 -0.169669,-1.040647 -0.407211,-1.934261 -0.237542,-0.893615 -0.373277,-1.685402 -0.690003,-2.262291 -0.316727,-0.576889 -0.814422,-0.938849 -0.644741,-0.746547 0.16968,0.192303 1.006713,0.938845 1.628848,1.640164 0.622135,0.701318 1.029341,1.35737 1.346064,2.013443 0.316724,0.656072 0.542949,1.312124 0.667375,1.821145 0.124427,0.50902 0.14705,0.870981 0.169673,0.701301 0.02262,-0.16968 0.04525,-0.870977 0.361974,-1.73066 0.316728,-0.859682 0.927536,-1.877695 1.097205,-1.798503 0.169669,0.07919 -0.101801,1.255562 -0.294097,2.149174 -0.192296,0.893613 -0.305409,1.504423 -0.339342,2.002132 -0.03393,0.497709 0.01131,0.882291 0.180986,0.848351 0.169675,-0.03394 0.463768,-0.486389 1.006726,-0.950164 0.542959,-0.463775 1.334746,-0.938847 2.069999,-1.300817 0.735253,-0.361971 1.413928,-0.610818 1.787208,-0.757868 0.37328,-0.14705 0.441146,-0.192294 -0.12444,0.192304 -0.565585,0.384599 -1.764577,1.199009 -2.45458,2.036067 -0.690002,0.837058 -0.870982,1.696714 -0.867047,2.359279 0.0039,0.662566 0.192779,1.128005 0.287204,1.36073 0.09442,0.232725 0.09442,0.232725 0.09442,0.232725 z"
       id="path25"
       inkscape:path-effect="#path-effect26"
       inkscape:original-d="m 26.899666,31.86947 c 0,0 0,0 0,0 0,0 -1.624434,-0.788091 -2.436651,-1.182138 -0.731815,-0.595103 -1.4636,-1.19018 -2.195399,-1.78527 -0.466431,-0.490556 -0.932844,-0.981094 -1.399265,-1.471639 -0.62727,-0.812234 -1.254514,-1.624436 -1.881771,-2.436653 -1.012486,-0.322737 -2.024931,-0.645461 -3.037397,-0.968192 -0.542961,0.180988 -1.085901,0.361968 -1.628852,0.542951 -0.565586,-0.633455 -1.131148,-1.266885 -1.696722,-1.900328 0.203611,-0.113117 0.407213,-0.226229 0.61082,-0.339344 0.882313,0.203611 1.76459,0.407213 2.646886,0.61082 0.882313,0.09049 1.76459,0.180983 2.646885,0.271475 0.656079,0.339351 1.312132,0.678689 1.968197,1.018033 0.678703,0.904936 1.357378,1.809836 2.036066,2.714754 -0.339351,-0.995429 -0.678688,-1.99082 -1.018033,-2.986229 -0.13574,-0.79182 -0.271475,-1.583607 -0.407213,-2.375411 -0.497715,-0.361974 -0.99541,-0.723934 -1.493115,-1.085902 0.837066,0.746573 1.674099,1.493115 2.511148,2.239673 0.407221,0.656079 0.814427,1.312131 1.22164,1.968197 0.226234,0.656079 0.452459,1.312131 0.678688,1.968196 0.02263,0.361976 0.04525,0.723937 0.06787,1.085903 0.02262,-0.701326 0.04525,-1.402623 0.06787,-2.103935 0.610832,-1.018053 1.22164,-2.036066 1.832459,-3.054099 -0.27148,1.176417 -0.54295,2.352787 -0.814426,3.529181 -0.113117,0.610831 -0.22623,1.221641 -0.339344,1.83246 0.04525,0.384599 0.09049,0.769181 0.135737,1.153771 0.294105,-0.452469 0.588197,-0.90492 0.882296,-1.357378 0.791819,-0.475091 1.583606,-0.950164 2.375411,-1.425246 0.678701,-0.248858 1.357376,-0.497705 2.036064,-0.746558 0.06787,-0.04525 0.135739,-0.09049 0.203607,-0.135737 -1.199041,0.814442 -2.398032,1.628853 -3.59705,2.44328 -0.180985,0.859689 -0.361965,1.719345 -0.54295,2.579015 0.188853,0.465461 0.377697,0.9309 0.566546,1.39635 z"
       transform="matrix(0.34787731,0,0,0.34787731,7.1559349,21.943927)"
       inkscape:export-filename="carrot.png"
       inkscape:export-xdpi="96"
       inkscape:export-ydpi="96" /><path
       style="opacity:0.698686;fill:#955da8;fill-opacity:1;stroke:none;stroke-width:0.370946;stroke-opacity:1"
       d="m 11.44144,34.376583 c 0.159658,0.01942 0.478974,0.05825 0.883518,0.06473 0.404544,0.0065 0.894296,-0.01942 1.291288,0.01403 0.396991,0.03344 0.701197,0.126216 0.879194,0.141318 0.177997,0.0151 0.229778,-0.04747 0.151026,-0.103562 -0.07875,-0.0561 -0.288031,-0.105719 -0.594406,-0.154264 -0.306374,-0.04854 -0.709826,-0.09601 -1.117605,-0.103561 -0.40778,-0.0076 -0.819862,0.02481 -1.096029,0.05178 -0.276166,0.02697 -0.416403,0.04855 -0.486524,0.05933 -0.07012,0.01079 -0.07012,0.01078 0.08954,0.0302 z"
       id="path12"
       inkscape:path-effect="#path-effect12"
       inkscape:original-d="m 11.281782,34.357165 c 0.319316,0.03884 0.638632,0.07767 0.957949,0.116508 0.489771,-0.02589 0.979523,-0.05178 1.469285,-0.07767 0.30422,0.09278 0.608427,0.185549 0.91264,0.278323 0.05178,-0.06257 0.103562,-0.125137 0.155343,-0.187706 -0.209285,-0.04962 -0.418563,-0.09925 -0.627844,-0.14887 -0.403469,-0.04747 -0.806921,-0.09493 -1.210381,-0.142398 -0.412099,0.03236 -0.824181,0.06473 -1.236271,0.09709 -0.140243,0.02158 -0.280481,0.04315 -0.420721,0.06473 z" /><path
       style="opacity:0.698686;fill:#955da8;fill-opacity:1;stroke:none;stroke-width:0.370946;stroke-opacity:1"
       d="m 9.6092032,38.087591 c 0.2380392,0.03899 0.4760778,0.07798 0.6766688,0.102603 0.200591,0.02462 0.363727,0.03488 0.539693,0.05746 0.175967,0.02257 0.364752,0.05746 0.540205,0.04925 0.175452,-0.0082 0.337563,-0.05951 0.411949,-0.111839 0.07439,-0.05233 0.06105,-0.105679 -0.01283,-0.119017 -0.07388,-0.01334 -0.208283,0.01334 -0.509942,0.0056 -0.301658,-0.0077 -0.770544,-0.04976 -1.055782,-0.05284 -0.2852371,-0.0031 -0.3868121,0.03283 -0.4591492,0.04925 -0.072337,0.01642 -0.1154324,0.01336 -0.1585206,0.01029"
       id="path13"
       inkscape:path-effect="#path-effect13"
       inkscape:original-d="m 9.6092032,38.087591 c 0.238039,0.03899 0.4760778,0.07798 0.7141178,0.116967 0.163142,0.01026 0.326278,0.02052 0.489417,0.03078 0.188793,0.03489 0.377579,0.06977 0.566369,0.104655 0.162116,-0.0513 0.324226,-0.102603 0.486339,-0.153904 -0.01334,-0.05336 -0.02668,-0.106708 -0.04002,-0.160061 -0.134412,0.02668 -0.26882,0.05335 -0.40323,0.08003 -0.468906,-0.04207 -0.937792,-0.08414 -1.406689,-0.126202 -0.1015787,0.03591 -0.2031539,0.07182 -0.3047309,0.107734 -0.043094,-0.0031 -0.086187,-0.0062 -0.1292799,-0.0092" /><path
       style="opacity:0.698686;fill:#955da8;fill-opacity:1;stroke:none;stroke-width:0.370946;stroke-opacity:1"
       d="m 13.255781,39.754878 c 0.132509,0.04919 0.397523,0.147565 0.676595,0.226869 0.279073,0.0793 0.572191,0.139534 0.87636,0.179688 0.304168,0.04015 0.619369,0.06023 0.892418,0.07629 0.273049,0.01606 0.503929,0.02811 0.71775,0.02309 0.213822,-0.005 0.410572,-0.0271 0.536054,-0.05119 0.125482,-0.02409 0.179687,-0.05019 0.09938,-0.0783 -0.08031,-0.02811 -0.295128,-0.05822 -0.501922,-0.06826 -0.206795,-0.01004 -0.405553,2e-6 -0.580224,0.006 -0.174671,0.006 -0.325245,0.008 -0.503932,-0.01407 -0.178687,-0.02209 -0.385474,-0.06827 -0.627404,-0.132512 -0.241931,-0.06425 -0.518987,-0.146561 -0.76192,-0.189727 -0.242933,-0.04317 -0.451728,-0.04718 -0.605317,-0.04518 -0.15359,0.002 -0.251966,0.01004 -0.301154,0.01405 -0.04919,0.004 -0.04919,0.004 0.08332,0.05323 z"
       id="path14"
       inkscape:path-effect="#path-effect14"
       inkscape:original-d="m 13.123273,39.705689 c 0.265016,0.09838 0.530031,0.196754 0.795047,0.295131 0.293129,0.06023 0.586247,0.120461 0.87937,0.180692 0.315214,0.02008 0.630415,0.04015 0.945623,0.06023 0.23089,0.01205 0.46177,0.02409 0.692655,0.03614 0.196758,-0.02208 0.393508,-0.04417 0.590262,-0.06625 0.05421,-0.0261 0.108415,-0.0522 0.162623,-0.0783 -0.214828,-0.03012 -0.429646,-0.06023 -0.64447,-0.09035 -0.198765,0.01004 -0.397523,0.02008 -0.596285,0.03012 -0.15058,0.002 -0.301154,0.004 -0.451731,0.006 -0.206797,-0.04618 -0.413585,-0.09235 -0.620377,-0.138531 -0.277067,-0.08232 -0.554124,-0.164631 -0.831185,-0.246946 -0.208805,-0.004 -0.417601,-0.008 -0.626401,-0.01205 -0.09838,0.008 -0.196754,0.01606 -0.295131,0.02409 z" /><path
       style="opacity:0.698686;fill:#955da8;fill-opacity:1;stroke:none;stroke-width:0.370946;stroke-opacity:1"
       d="m 16.345654,48.351166 c 0,0 0,0 0,0 -0.186789,0.02043 -0.373577,0.04086 -0.650845,0.03064 -0.277268,-0.01022 -0.645001,-0.05107 -0.955831,-0.07004 -0.310831,-0.01896 -0.56474,-0.01603 -0.523878,0.0117 0.04086,0.02773 0.376492,0.08027 0.726725,0.121129 0.350232,0.04086 0.715046,0.07005 0.951451,0.05254 0.236406,-0.01751 0.344391,-0.08172 0.398385,-0.113823 0.05399,-0.0321 0.05399,-0.03215 0.05399,-0.03215 z"
       id="path27"
       inkscape:path-effect="#path-effect28"
       inkscape:original-d="m 16.345654,48.351166 c 0,0 0,0 0,0 0,0 -0.373577,0.04086 -0.560366,0.06129 -0.367747,-0.04086 -0.73548,-0.08172 -1.10322,-0.122579 -0.253921,0.0029 -0.507831,0.0058 -0.761747,0.0088 0.335642,0.05253 0.671271,0.105068 1.006907,0.157604 0.364829,0.02919 0.729643,0.05837 1.094464,0.08756 0.10799,-0.06421 0.215975,-0.128418 0.323962,-0.192625 z" /><g
       id="g1"
       transform="translate(0.33139308,-1.0867615)"
       style="fill:#51275d;fill-opacity:1"><path
         style="opacity:1;fill:#51275d;fill-opacity:1;stroke:none;stroke-width:0;stroke-dasharray:none;stroke-opacity:1"
         d="m 18.45919,81.618294 c 0.252292,0.08139 1.698582,0.163933 2.954255,0.320892 1.255673,0.156959 2.32063,0.388319 3.167036,0.333089 0.846407,-0.05523 1.474205,-0.397032 1.286687,-0.504061 -0.187518,-0.107029 -1.19036,0.02073 -2.289041,-0.0054 -1.098681,-0.02616 -2.293201,-0.206239 -3.361356,-0.25617 -1.068155,-0.04993 -2.009873,0.03029 -1.757581,0.111676 z"
         id="path4"
         inkscape:path-effect="#path-effect4"
         inkscape:original-d="m 17.265162,81.617131 c 1.44632,0.08255 2.89261,0.165096 4.338958,0.247646 1.064998,0.231368 2.129955,0.462727 3.194931,0.694091 0.627837,-0.341823 1.255635,-0.683626 1.883471,-1.025448 -1.002872,0.127765 -2.005714,0.255526 -3.008556,0.383288 -1.19452,-0.18008 -2.38904,-0.360159 -3.583595,-0.540244 -0.941755,0.08022 -1.883473,0.160445 -2.825209,0.240667 z"
         transform="matrix(0.32114685,0,0,0.32114685,7.7459145,23.16853)"
         sodipodi:nodetypes="ccccccc" /><path
         style="opacity:1;fill:#51275d;fill-opacity:1;stroke:none;stroke-width:0;stroke-dasharray:none;stroke-opacity:1"
         d="m 10.67301,67.909638 c 0.313912,0.209275 1.726517,-0.418549 3.322253,-0.73246 1.595737,-0.313912 3.374537,-0.313912 3.452998,-0.418551 0.07846,-0.10464 -1.543384,-0.31391 -2.746722,-0.523187 -1.203337,-0.209277 -1.988101,-0.418548 -2.772889,1.2e-5 -0.784788,0.41856 -1.569552,1.464911 -1.25564,1.674186 z"
         id="path5"
         inkscape:path-effect="#path-effect5"
         inkscape:original-d="m 9.5743174,68.746737 c 1.4126036,-0.627825 2.8252086,-1.255649 4.2378126,-1.883471 1.77887,0 3.55767,0 5.336505,0 -1.621912,-0.20928 -3.243758,-0.41855 -4.865637,-0.627824 -0.784796,-0.209281 -1.56956,-0.41855 -2.35434,-0.627825 -0.784796,1.046395 -1.56956,2.092746 -2.3543406,3.13912 z"
         transform="matrix(0.32114685,0,0,0.32114685,7.7963204,22.66447)" /><path
         style="opacity:1;fill:#51275d;stroke:none;stroke-width:0;stroke-dasharray:none;stroke-opacity:1;fill-opacity:1"
         d="m 26.263973,52.47563 c 0.470868,0.209274 2.092748,0.313912 3.400725,0.36623 1.307977,0.05232 2.302011,0.05232 2.66824,-0.183119 0.366229,-0.235438 0.10464,-0.706299 -0.863272,-0.915573 -0.967912,-0.209274 -2.642077,-0.156957 -3.819255,0.02616 -1.177177,0.183119 -1.857305,0.497025 -1.386438,0.7063 z"
         id="path6"
         inkscape:path-effect="#path-effect6"
         inkscape:original-d="m 25.112964,52.580267 c 1.621877,0.104637 3.243757,0.209275 4.865637,0.313912 0.994074,0 1.988108,0 2.982164,0 -0.261599,-0.470876 -0.523187,-0.941737 -0.784781,-1.412605 -1.67423,0.05232 -3.348395,0.104637 -5.022593,0.156956 -0.680157,0.31392 -1.360285,0.627825 -2.040427,0.941737 z"
         transform="matrix(0.32114685,0,0,0.32114685,7.6955086,21.30351)" /><path
         style="opacity:1;fill:#51275d;fill-opacity:1;stroke:none;stroke-width:0;stroke-dasharray:none;stroke-opacity:1"
         d="m 10.359097,39.500599 c -0.6278237,0.209274 -0.6278237,0.209274 -0.6278237,0.209274 1.6741977,-0.104638 3.3483947,-0.209275 4.5517317,-0.07848 1.203337,0.1308 1.935784,0.497024 2.511293,0.65398 0.57551,0.156955 0.994051,0.104638 0.41853,-0.23544 -0.575521,-0.340077 -2.145051,-0.967889 -3.557667,-1.072522 -1.412616,-0.104633 -2.66824,0.313908 -3.296064,0.523183 z"
         id="path7"
         inkscape:path-effect="#path-effect7"
         inkscape:original-d="m 9.7312733,39.709873 c 0,0 0,0 0,0 0,0 3.3483947,-0.209275 5.0225927,-0.313913 0.732476,0.366239 1.464923,0.732462 2.197384,1.098693 0.418558,-0.05232 0.837099,-0.104637 1.255648,-0.156956 -1.569591,-0.627835 -3.13912,-1.255649 -4.70868,-1.883471 -1.255673,0.418558 -2.511297,0.837097 -3.7669447,1.255647 z"
         transform="matrix(0.45111332,0,0,0.32114685,6.5315817,22.66447)" /><path
         style="opacity:1;fill:#51275d;stroke:none;stroke-width:0;stroke-dasharray:none;stroke-opacity:1;fill-opacity:1"
         d="m 30.435413,68.613898 c 0.130243,0.164805 1.188153,0.353724 1.877724,0.654408 0.689571,0.300684 1.010776,0.71312 1.685151,0.854095 0.674374,0.140975 1.701893,0.01048 1.756806,-0.255912 0.05491,-0.266392 -0.862737,-0.668658 -1.667366,-0.974442 -0.804628,-0.305784 -1.496138,-0.51505 -2.240639,-0.549344 -0.7445,-0.03429 -1.541919,0.10639 -1.411676,0.271195 z"
         id="path8"
         inkscape:path-effect="#path-effect8"
         inkscape:original-d="m 29.507733,68.589781 c 1.057923,0.188922 2.115833,0.377841 3.173763,0.566764 0.321213,0.412445 0.642418,0.824881 0.96363,1.237327 1.027536,-0.130496 2.055055,-0.260991 3.082583,-0.391486 -0.917703,-0.402289 -1.835352,-0.804555 -2.753057,-1.206845 -0.691552,-0.209279 -1.383062,-0.418545 -2.074612,-0.627822 -0.797451,0.14069 -1.59487,0.281374 -2.392307,0.422062 z"
         transform="matrix(-0.43586619,0,0,0.19902463,32.538518,31.163898)"
         sodipodi:nodetypes="ccccccc" /><path
         style="opacity:1;fill:#51275d;stroke:none;stroke-width:0;stroke-dasharray:none;stroke-opacity:1;fill-opacity:1"
         d="m 10.210706,55.937559 c 0.141526,0.227424 1.432783,0.294504 2.342557,0.503313 0.909773,0.208809 1.438042,0.559343 2.087007,0.692442 0.648965,0.133099 1.418615,0.04876 2.373252,0.09078 0.954636,0.04202 2.09419,0.210387 2.057739,0.112424 -0.03645,-0.09796 -1.248918,-0.462252 -1.981379,-0.54073 -0.732462,-0.07848 -0.984891,0.128861 -1.314232,0.170481 -0.329341,0.04162 -0.735584,-0.08248 -1.037248,-0.25845 -0.301664,-0.175971 -0.498742,-0.40381 -0.923441,-0.707989 -0.424699,-0.304179 -1.077021,-0.6847 -1.907296,-0.681078 -0.830275,0.0036 -1.838484,0.391382 -1.696959,0.618805 z"
         id="path9"
         inkscape:path-effect="#path-effect9"
         inkscape:original-d="m 9.060957,56.097902 c 1.291275,0.06708 2.582532,0.134161 3.873806,0.201242 0.528273,0.350537 1.056542,0.701071 1.584813,1.051606 0.769659,-0.08434 1.539309,-0.168673 2.308977,-0.253011 1.139605,0.168376 2.279159,0.336744 3.418774,0.505121 -1.212517,-0.364304 -2.424984,-0.728592 -3.637475,-1.092888 -0.252432,0.20734 -0.504861,0.414679 -0.757294,0.62202 -0.406249,-0.124101 -0.812492,-0.2482 -1.218741,-0.372301 -0.197079,-0.227841 -0.394157,-0.45568 -0.591234,-0.683518 -0.652321,-0.38052 -1.304643,-0.761041 -1.956969,-1.141564 -1.008224,0.387766 -2.016433,0.775527 -3.024657,1.163293 z"
         transform="matrix(0.47842729,0,0,0.32114685,7.8948815,22.815687)"
         sodipodi:nodetypes="ccccccccccc" /><path
         style="opacity:1;fill:#51275d;fill-opacity:1;stroke:none;stroke-width:0;stroke-dasharray:none;stroke-opacity:1"
         d="m 17.683712,75.888237 c 0.627824,0.392388 1.674197,0.706301 2.589782,1.098696 0.915585,0.392395 1.700349,0.863254 2.432817,0.967889 0.732468,0.104634 1.412598,-0.156954 2.537465,-0.47087 1.124867,-0.313915 2.694395,-0.680139 3.609975,-0.967894 0.91558,-0.287754 1.177169,-0.497026 0.549328,-0.627823 -0.62784,-0.130797 -2.145018,-0.183112 -3.007806,0.04121 -0.862788,0.224324 -1.071079,0.725261 -1.568115,0.908379 -0.497036,0.183118 -1.282778,0.04839 -1.754136,0.137991 -0.471359,0.0896 -0.628311,0.403501 -1.073027,0.325019 -0.444716,-0.07848 -1.177163,-0.549342 -2.014271,-0.837096 -0.837108,-0.287754 -1.778826,-0.392389 -2.249694,-0.444708 -0.470868,-0.05232 -0.470868,-0.05232 -0.470868,-0.05232 0,0 0,0 0,0 0,0 0,0 0,0 -0.209275,-0.470867 -0.418549,-0.941734 -0.418547,-0.94173 2e-6,4e-6 0.209273,0.470865 0.837097,0.863254 z"
         id="path10"
         inkscape:path-effect="#path-effect10"
         inkscape:original-d="m 17.265162,75.966713 c 1.046374,0.313913 2.092747,0.627825 3.139121,0.941737 0.784796,0.470879 1.56956,0.941737 2.35434,1.412605 0.680156,-0.261599 1.360286,-0.523187 2.040428,-0.78478 1.569592,-0.366239 3.13912,-0.732462 4.708682,-1.098693 0.261598,-0.209278 0.523187,-0.41855 0.78478,-0.627825 -1.517274,-0.05232 -3.034452,-0.104634 -4.551725,-0.156953 -0.208303,0.500967 -0.416593,1.001904 -0.624896,1.502869 -0.78577,-0.134728 -1.571512,-0.269453 -2.357269,-0.404179 -0.156959,0.31392 -0.313912,0.627824 -0.470868,0.941737 -0.732476,-0.470877 -1.464923,-0.941737 -2.197384,-1.412605 -0.941755,-0.104638 -1.883473,-0.209275 -2.825209,-0.313913 v 0 0 0 c 0,0 -0.418549,-0.941734 -0.627824,-1.412602 0.209279,0.470876 0.41855,0.941737 0.627824,1.412602 z"
         sodipodi:nodetypes="cccccccccccsccccc"
         transform="matrix(0.32114685,0,0,0.32114685,7.7963204,22.66447)" /><path
         style="opacity:1;fill:#51275d;fill-opacity:1;stroke:none;stroke-width:0;stroke-dasharray:none;stroke-opacity:1"
         d="m 4.6727431,51.265822 c -0.1561791,0.20824 1.1776361,0.08457 2.2349291,0.158912 1.057293,0.07434 1.838,0.346696 2.5408058,0.398755 0.702806,0.05206 1.327695,-0.116178 1.796322,-0.304417 0.468628,-0.188238 0.780978,-0.396472 0.402631,-0.475771 -0.378347,-0.0793 -1.447369,-0.02966 -2.1501733,-0.185837 -0.702804,-0.156179 -1.0393755,-0.518179 -2.0307628,-0.429104 -0.9913873,0.08908 -2.6375726,0.629223 -2.7937518,0.837462 z"
         id="path11"
         inkscape:path-effect="#path-effect11"
         inkscape:original-d="m 3.1827273,51.597734 c 1.3338367,-0.123672 2.6676519,-0.247343 4.0015073,-0.371017 0.7807304,0.272361 1.5614375,0.544713 2.3421565,0.817069 0.6248929,-0.168237 1.2497819,-0.336474 1.8746769,-0.504713 0.31236,-0.208239 0.62471,-0.416473 0.937074,-0.624715 -1.069058,0.04964 -2.13808,0.09929 -3.2071167,0.148927 -0.3365715,-0.362 -0.673143,-0.724 -1.0097167,-1.086002 -1.6462009,0.540153 -3.2923864,1.0803 -4.9385813,1.620451 z"
         transform="matrix(0.32114685,0,0,0.32114685,7.7658257,22.674635)"
         sodipodi:nodetypes="cccccccc" /></g><path
       style="opacity:0.698686;fill:#955da8;fill-opacity:1;stroke:none;stroke-width:0.370946;stroke-opacity:1"
       d="m 16.763154,37.020433 c 0.335815,0.0081 1.007446,0.02425 1.327096,0.04335 0.31965,0.0191 0.287316,0.04115 0.223384,0.06246 -0.06393,0.02131 -0.159458,0.04189 -0.297608,0.05291 -0.138149,0.01102 -0.318912,0.01249 -0.479105,0.0073 -0.160194,-0.0051 -0.299808,-0.0169 -0.460737,-0.03233 -0.160928,-0.01543 -0.343161,-0.03454 -0.45412,-0.05364 -0.110959,-0.01911 -0.150637,-0.03821 -0.171212,-0.05291 -0.02058,-0.0147 -0.02204,-0.02497 -0.02277,-0.03012 -7.34e-4,-0.0051 -7.4e-4,-0.0051 0.335076,0.0029 z"
       id="path15"
       inkscape:path-effect="#path-effect15"
       inkscape:original-d="m 16.427338,37.01235 c 0.671631,0.01617 1.343262,0.03233 2.014892,0.0485 -0.03233,0.02204 -0.06466,0.04409 -0.097,0.06613 -0.09553,0.02057 -0.191055,0.04115 -0.286582,0.06173 -0.180771,0.0015 -0.361534,0.0029 -0.542301,0.0044 -0.13962,-0.01176 -0.279234,-0.02351 -0.418851,-0.03527 -0.18224,-0.01911 -0.364473,-0.03821 -0.54671,-0.05732 -0.03968,-0.01911 -0.07936,-0.03821 -0.119042,-0.05732 -0.0015,-0.01029 -0.0029,-0.02057 -0.0044,-0.03086 z" /><path
       style="opacity:0.698686;fill:#955da8;fill-opacity:1;stroke:none;stroke-width:0.370946;stroke-opacity:1"
       d="m 17.406052,43.988936 c 0.107981,0.0038 0.323941,0.0115 0.557156,-0.01406 0.233214,-0.02556 0.483674,-0.08434 0.756504,-0.132261 0.27283,-0.04792 0.568014,-0.08498 0.688133,-0.07859 0.120119,0.0064 0.06517,0.05623 -0.03259,0.09073 -0.09776,0.0345 -0.238322,0.05367 -0.394863,0.07667 -0.156541,0.023 -0.329051,0.04984 -0.47537,0.07987 -0.146319,0.03003 -0.266435,0.06326 -0.43959,0.07668 -0.173155,0.01342 -0.399335,0.007 -0.536067,-0.01342 -0.136731,-0.02045 -0.184016,-0.05495 -0.207656,-0.0722 -0.02364,-0.01725 -0.02364,-0.01725 0.08434,-0.01342 z"
       id="path16"
       inkscape:path-effect="#path-effect16"
       inkscape:original-d="m 17.29807,43.985103 c 0.215962,0.0077 0.431923,0.01534 0.647884,0.023 0.250469,-0.05878 0.500928,-0.117565 0.751392,-0.176347 0.295196,-0.03706 0.59038,-0.07412 0.885569,-0.111176 -0.05495,0.04984 -0.109897,0.09968 -0.164846,0.149512 -0.140569,0.01917 -0.281133,0.03834 -0.421699,0.0575 -0.172517,0.02684 -0.345027,0.05367 -0.517541,0.08051 -0.120123,0.03323 -0.240241,0.06645 -0.360361,0.09968 -0.226189,-0.0064 -0.452369,-0.01278 -0.678553,-0.01917 -0.04728,-0.0345 -0.09456,-0.06901 -0.141845,-0.103507 z" /><path
       style="opacity:0.698686;fill:#955da8;fill-opacity:1;stroke:none;stroke-width:0.370946;stroke-opacity:1"
       d="m 17.647339,46.025063 c -0.03794,0.0029 -0.113826,0.0088 -0.33856,0.05837 -0.224735,0.04962 -0.598305,0.143009 -1.030258,0.218892 -0.431953,0.07588 -0.922263,0.134254 -1.254982,0.09339 -0.332719,-0.04086 -0.50783,-0.180951 -0.662515,-0.248076 -0.154684,-0.06713 -0.288937,-0.06129 -0.423194,-0.105065 -0.134257,-0.04378 -0.268506,-0.137169 -0.205754,-0.09923 0.06275,0.03794 0.3225,0.207217 0.605604,0.350228 0.283105,0.143011 0.589548,0.259751 0.885787,0.322501 0.296238,0.06275 0.582251,0.07151 0.881407,0.0015 0.299156,-0.07005 0.611438,-0.218892 0.87703,-0.331258 0.265592,-0.112365 0.484481,-0.188247 0.593928,-0.226188 0.109446,-0.03794 0.109446,-0.03795 0.07151,-0.03503 z"
       id="path26"
       inkscape:path-effect="#path-effect27"
       inkscape:original-d="m 17.685278,46.022145 c -0.07588,0.0058 -0.151765,0.01167 -0.227649,0.01751 -0.373584,0.0934 -0.747154,0.186791 -1.120731,0.280183 -0.49033,0.05837 -0.98064,0.116745 -1.47096,0.175115 -0.175118,-0.140095 -0.350229,-0.280184 -0.525343,-0.420275 -0.134257,0.0058 -0.268508,0.01167 -0.402763,0.01752 -0.134257,-0.0934 -0.268508,-0.186788 -0.402763,-0.280183 0.259758,0.169281 0.519506,0.338556 0.779259,0.507831 0.306456,0.116747 0.6129,0.233487 0.91935,0.350229 0.286026,0.0088 0.57204,0.01752 0.85806,0.02627 0.312293,-0.148849 0.624575,-0.297693 0.936862,-0.446543 0.218897,-0.07588 0.437785,-0.151765 0.656678,-0.227647 z" /><path
       style="opacity:0.698686;fill:#955da8;fill-opacity:1;stroke:none;stroke-width:0.370946;stroke-opacity:1"
       d="m 11.812669,43.335946 c 0.157851,-0.05836 0.542434,-0.163591 0.897363,-0.224818 0.354929,-0.06123 0.680191,-0.07845 0.81891,-0.07558 0.138719,0.0029 0.09088,0.02583 -0.04114,0.04783 -0.132022,0.022 -0.348226,0.04305 -0.548172,0.07653 -0.199947,0.03348 -0.383625,0.0794 -0.572092,0.124368 -0.188466,0.04496 -0.381709,0.08897 -0.512774,0.105233 -0.131064,0.01626 -0.199945,0.0048 -0.04209,-0.05357 z"
       id="path28"
       inkscape:path-effect="#path-effect29"
       inkscape:original-d="m 11.585937,43.382823 c 0.384583,-0.105234 0.769166,-0.210468 1.153748,-0.315702 0.325276,-0.01722 0.650538,-0.03444 0.975807,-0.05166 -0.04783,0.02296 -0.09567,0.04592 -0.143501,0.06888 -0.216212,0.02105 -0.432416,0.04209 -0.648624,0.06314 -0.183685,0.04592 -0.367363,0.09184 -0.551044,0.137761 -0.193252,0.04401 -0.386496,0.08801 -0.579744,0.132021 -0.06888,-0.01148 -0.137761,-0.02296 -0.206642,-0.03444 z" /><path
       style="opacity:1;fill:#1e082a;fill-opacity:1;stroke:none;stroke-width:0.46936;stroke-opacity:1"
       d="m 16.220086,32.002991 c 0.169971,0.315661 0.849855,0.607039 0.849855,0.607039 0,0 0.534196,0.655603 0.558477,0.946983 0.02428,0.291378 -0.46135,1.116952 -0.46135,1.116952 0,0 -0.07284,0.485634 -0.07284,0.655603 0,0.169973 -0.29138,0.679886 -0.29138,0.679886 0,0 -0.509913,-0.07284 -0.728448,-0.07284 -0.218533,0 -0.874138,0.461351 -0.874138,0.461351 l 0.43707,-0.04856 0.534194,-0.29138 c 0,0 0.485632,-0.04856 0.558477,0.121406 0.07284,0.169971 0.412787,0.437068 0.218535,0.485632 -0.194254,0.04856 -0.485632,0.169971 -0.388506,0.315661 0.09712,0.145688 0.242816,0.63132 0.242816,0.63132 l -0.77701,0.704167 c 0,0 0.121406,0.29138 0.242814,0.02428 0.121407,-0.267097 0.58276,-0.704165 0.607041,-0.9227 0.02428,-0.218535 0,-0.388506 0,-0.582758 0,-0.194254 0.364225,-0.315661 0.267097,-0.534196 -0.09712,-0.218533 -0.291378,-0.388504 -0.291378,-0.388504 l 0.63132,-0.728448 c 0,0 0.388506,0.218533 0.43707,0.461349 0.04856,0.242816 0.218533,0.922702 0.218533,0.922702 0,0 0.121406,0.534194 0.29138,0.728446 0.169971,0.194254 0.14569,0.631322 -0.02428,0.801293 -0.169971,0.169971 -0.582758,0.509915 -0.607041,0.801293 -0.02428,0.29138 -0.121406,0.267097 -0.04856,1.092673 0.07284,0.825572 0.09712,1.55402 0.04856,1.141235 -0.04856,-0.412789 0.07284,-1.50546 0.07284,-1.893966 0,-0.388506 0.777012,-0.898419 0.777012,-1.092671 0,-0.194252 -0.07284,-0.9227 0,-0.582758 0.07284,0.339942 0.558475,0.607039 0.704165,0.607039 0.14569,0 0.679885,-0.169971 0.679885,0.339942 0,0.509915 0.07284,0.364225 0.07284,1.116954 0,0.752729 -0.267097,1.311206 -0.267097,1.311206 l 0.218535,-0.898419 c 0,0 0.509913,-0.169971 0.631321,0.169971 0.121406,0.339942 0.558476,0.704167 0.558476,0.704167 0,0 -0.267097,-0.728448 -0.558476,-0.898419 -0.291379,-0.169971 -0.509914,0.121406 -0.558476,-0.43707 -0.04856,-0.558475 0.412787,-1.116952 -0.121407,-1.408332 -0.534194,-0.291378 -1.141234,-0.364223 -1.141234,-0.364223 0,0 -0.291379,-0.485632 -0.46135,-0.849857 -0.169971,-0.364223 -0.29138,-0.534194 -0.29138,-0.752729 0,-0.218535 0.09712,-0.534194 0,-0.704165 -0.09712,-0.169973 -0.582758,-0.485632 -0.582758,-0.485632 0,0 -0.412787,-0.388506 -0.09712,-0.534196 0.315661,-0.14569 0.558477,-1.092671 0.558477,-1.092671 0,0 -0.509914,-0.509913 -0.752729,-0.825574 C 16.9971,32.245807 16.22009,32.002991 16.22009,32.002991 Z"
       id="path30" /><path
       style="opacity:1;fill:#1e082a;fill-opacity:1;stroke:none;stroke-width:0.370946;stroke-opacity:1"
       d="m 9.487818,43.570792 0.295766,-0.341268 c 0,0 0.728039,-0.02275 0.728039,-0.295767 0,-0.273015 0.341269,-0.773541 0.341269,-0.773541 0,0 0.887298,-0.273016 0.887298,0 0,0.273013 0.568781,0.591532 0.568781,0.591532 l 0.523278,-0.546029 0.500527,0.06825 -0.568781,-0.18201 -0.659785,0.591532 -0.36402,-0.523277 0.06825,-0.477777 c 0,0 -0.136508,-0.182009 0.273015,-0.182009 0.409522,0 0.864546,-0.06826 0.864546,-0.06826 0,0 0.386771,-0.819044 0.318518,-0.637034 -0.06825,0.182009 -0.500528,0.614283 -0.773542,0.614283 -0.273015,0 -0.659786,-0.136507 -0.750791,0.06825 -0.091,0.204761 -0.18201,0.455025 -0.18201,0.455025 0,0 -0.682537,0.18201 -0.637034,0 0.0455,-0.182009 0.18201,-0.682537 0.18201,-0.682537 0,0 0.796293,-0.136507 0.841795,-0.341268 0.0455,-0.204761 -0.09101,-0.38677 0.113756,-0.477776 0.204761,-0.09101 0.659786,-0.432274 0.72804,-0.614283 0.06825,-0.18201 0.36402,-0.386771 0.113756,-0.295768 -0.250264,0.09101 -0.523278,0.546032 -0.773542,0.70529 -0.250263,0.159258 -0.386771,0.591531 -0.386771,0.591531 l -0.682537,0.477777 c 0,0 0,-0.477777 0,-0.728041 0,-0.250261 0.432273,-0.500525 0.432273,-0.500525 0,0 0.250264,-0.227513 0.250264,-0.477777 0,-0.250264 0.02275,-0.978303 0.02275,-0.705288 0,0.273015 -0.318518,0.978304 -0.36402,1.183065 -0.0455,0.204761 -0.523279,0.364019 -0.523279,0.364019 0,0 -0.0455,0.227512 0.0455,0.477776 0.09101,0.250264 -0.06825,0.682535 -0.06825,0.819044 0,0.136507 -0.06825,0.409523 -0.250263,0.500526 -0.18201,0.09101 -0.386771,0.591534 -0.386771,0.591534 l -0.750791,0.295765 z"
       id="path31-2" /><path
       style="opacity:1;fill:#1e082a;fill-opacity:1;stroke:none;stroke-width:0.164443;stroke-opacity:1"
       d="m 17.262878,46.628749 -0.135635,-0.146245 c 0,0 -0.333872,-0.0098 -0.333872,-0.126746 0,-0.116997 -0.156503,-0.33149 -0.156503,-0.33149 0,0 -0.406906,-0.116996 -0.406906,0 0,0.116997 -0.260837,0.253493 -0.260837,0.253493 l -0.239971,-0.233993 -0.229537,0.02925 0.260838,-0.078 0.302571,0.253492 0.166936,-0.224243 -0.0313,-0.204744 c 0,0 0.0626,-0.078 -0.125201,-0.078 -0.187803,0 -0.396473,-0.02925 -0.396473,-0.02925 0,0 -0.177369,-0.350989 -0.146069,-0.272991 0.0313,0.078 0.229537,0.263242 0.354739,0.263242 0.125202,0 0.302571,-0.0585 0.344305,0.02925 0.04173,0.08775 0.08347,0.194994 0.08347,0.194994 0,0 0.313005,0.078 0.292138,0 -0.02086,-0.078 -0.08347,-0.292491 -0.08347,-0.292491 0,0 -0.365172,-0.0585 -0.386039,-0.146245 -0.02087,-0.08775 0.04173,-0.165744 -0.05217,-0.204744 -0.0939,-0.039 -0.302572,-0.185244 -0.333872,-0.263241 -0.0313,-0.078 -0.166937,-0.165745 -0.05217,-0.126747 0.114769,0.039 0.239971,0.233994 0.354739,0.302241 0.114769,0.06825 0.17737,0.253492 0.17737,0.253492 l 0.313005,0.204744 c 0,0 0,-0.204744 0,-0.311991 0,-0.107245 -0.198237,-0.214492 -0.198237,-0.214492 0,0 -0.114768,-0.0975 -0.114768,-0.204744 0,-0.107247 -0.01043,-0.419237 -0.01043,-0.302241 0,0.116997 0.146069,0.419237 0.166936,0.506985 0.02086,0.08775 0.23997,0.155994 0.23997,0.155994 0,0 0.02087,0.0975 -0.02086,0.204744 -0.04174,0.107247 0.0313,0.29249 0.0313,0.350989 0,0.0585 0.0313,0.175495 0.114768,0.214493 0.08347,0.039 0.177369,0.253493 0.177369,0.253493 l 0.344306,0.126745 z"
       id="path31-2-0"
       inkscape:transform-center-x="-1.2636313" /><path
       style="opacity:1;fill:#000000;fill-opacity:1;stroke:none;stroke-width:0.370946;stroke-opacity:1"
       d="m 12.291077,25.540154 -0.819957,-0.158238 -0.776801,0.04316 0.438749,-0.438749 0.561023,-0.0072 0.582601,0.258934 z"
       id="path32" /><path
       style="opacity:1;fill:#000000;fill-opacity:1;stroke:none;stroke-width:0.370946;stroke-opacity:1"
       d="m 17.319908,27.689853 -0.414621,-0.51632 0.25816,-0.95441 0.844887,-0.477205 -0.117345,0.485028 c 0,0 0.469382,0.367683 0.406797,0.43809 -0.06258,0.07041 -0.430266,0.578904 -0.430266,0.578904 l 0.281629,0.33639 z"
       id="path33" /><path
       style="opacity:1;fill:#000000;fill-opacity:1;stroke:none;stroke-width:0.370946;stroke-opacity:1"
       d="m 19.59835,31.32283 0.09968,-0.276896 0.592556,-0.509487 0.653473,-0.09968 -0.171675,0.337813 c 0,0 0.01108,0.420881 0.01661,0.537177 0.0055,0.116296 0.05538,0.354426 -0.0055,0.337812 -0.06092,-0.01661 -0.686701,-0.13291 -0.686701,-0.13291 z"
       id="path34" /><path
       style="opacity:1;fill:#000000;fill-opacity:1;stroke:none;stroke-width:0.370946;stroke-opacity:1"
       d="M 10.620468,30.498288 10.102619,30.084009 H 9.5847692 c 0,0 0.7595128,0.707727 0.7595128,0.828559 0,0.120831 0.276186,-0.41428 0.276186,-0.41428 z"
       id="path35" /><path
       style="opacity:1;fill:#000000;fill-opacity:1;stroke:none;stroke-width:0.370946;stroke-opacity:1"
       d="m 9.5329844,29.169142 -0.1208315,-0.655943 0.7422501,-0.63868 c 0,0 -0.2589241,0.224401 -0.172616,0.397017 0.086308,0.172617 0.189878,0.397018 0.189878,0.51785 0,0.120831 -0.6386806,0.379756 -0.6386806,0.379756 z"
       id="path36" /><path
       style="opacity:1;fill:#000000;fill-opacity:1;stroke:none;stroke-width:0.370946;stroke-opacity:1"
       d="m 14.616855,31.002347 c 0,0 0.09082,-0.595347 -0.08072,-0.6458 -0.171541,-0.05045 -0.665981,-0.373353 -0.665981,-0.373353 l 0.232084,0.837522 z"
       id="path37" /><path
       style="opacity:1;fill:#aee563;fill-opacity:1;stroke:#265118;stroke-width:0.1;stroke-opacity:1;stroke-dasharray:none"
       d="m 21.257281,41.890475 c -0.02044,0.288082 -0.06133,0.864247 -0.08178,1.297549 -0.02044,0.433301 -0.02044,0.723729 0.01848,1.017159 0.03892,0.29343 0.116771,0.589845 0.05988,0.736557 -0.05689,0.146712 -0.248513,0.143712 -0.396725,0.07933 -0.148211,-0.06438 -0.253006,-0.190132 -0.299415,-0.362297 -0.04641,-0.172166 -0.03443,-0.390736 1e-6,-0.586855 0.03443,-0.196119 0.09132,-0.369777 0.170667,-0.613804 0.07935,-0.244027 0.181146,-0.558407 0.263486,-0.827884 0.08234,-0.269476 0.145216,-0.494033 0.189613,-0.657859 0.0444,-0.163827 0.07031,-0.266914 0.08327,-0.318457 0.01296,-0.05154 0.01296,-0.05153 -0.0075,0.236557 z"
       id="path38"
       inkscape:path-effect="#path-effect38"
       inkscape:original-d="m 21.277726,41.602392 c -0.04089,0.576165 -0.08178,1.15233 -0.122667,1.728495 0,0.290438 0,0.580866 0,0.871299 0.07785,0.296427 0.155696,0.592842 0.233544,0.889266 -0.19163,-0.003 -0.383252,-0.006 -0.574878,-0.009 -0.104798,-0.125756 -0.209591,-0.25151 -0.314387,-0.377264 0.01198,-0.218577 0.02395,-0.437147 0.03593,-0.655721 0.05689,-0.173664 0.113778,-0.347322 0.170667,-0.520983 0.101804,-0.314393 0.203603,-0.628773 0.305404,-0.94316 0.06288,-0.224566 0.125755,-0.449123 0.188632,-0.673685 0.02592,-0.10309 0.05184,-0.206176 0.07775,-0.309264 z"
       transform="translate(-0.05389483,-0.07185977)" /><path
       style="fill:#aee563;fill-opacity:1;stroke:#265118;stroke-width:0.1;stroke-dasharray:none;stroke-opacity:1"
       d="m 21.257281,41.890475 c -0.02044,0.288082 -0.06133,0.864247 -0.08178,1.297549 -0.02044,0.433301 -0.02044,0.723729 0.01848,1.017159 0.03892,0.29343 0.116771,0.589845 0.05988,0.736557 -0.05689,0.146712 -0.248513,0.143712 -0.396725,0.07933 -0.148211,-0.06438 -0.253006,-0.190132 -0.299415,-0.362297 -0.04641,-0.172166 -0.03443,-0.390736 1e-6,-0.586855 0.03443,-0.196119 0.09132,-0.369777 0.170667,-0.613804 0.07935,-0.244027 0.181146,-0.558407 0.263486,-0.827884 0.08234,-0.269476 0.145216,-0.494033 0.189613,-0.657859 0.0444,-0.163827 0.07031,-0.266914 0.08327,-0.318457 0.01296,-0.05154 0.01296,-0.05153 -0.0075,0.236557 z"
       id="path38-2"
       inkscape:path-effect="#path-effect38-6"
       inkscape:original-d="m 21.277726,41.602392 c -0.04089,0.576165 -0.08178,1.15233 -0.122667,1.728495 0,0.290438 0,0.580866 0,0.871299 0.07785,0.296427 0.155696,0.592842 0.233544,0.889266 -0.19163,-0.003 -0.383252,-0.006 -0.574878,-0.009 -0.104798,-0.125756 -0.209591,-0.25151 -0.314387,-0.377264 0.01198,-0.218577 0.02395,-0.437147 0.03593,-0.655721 0.05689,-0.173664 0.113778,-0.347322 0.170667,-0.520983 0.101804,-0.314393 0.203603,-0.628773 0.305404,-0.94316 0.06288,-0.224566 0.125755,-0.449123 0.188632,-0.673685 0.02592,-0.10309 0.05184,-0.206176 0.07775,-0.309264 z"
       transform="matrix(-1,0,0,1,31.833569,6.8059804)" /><path
       style="opacity:1;fill:#aee563;fill-opacity:1;stroke:#265118;stroke-width:0.1;stroke-dasharray:none;stroke-opacity:1"
       d="m 17.045563,52.293241 c -0.08098,0.198966 -0.242922,0.596894 -0.372481,0.987886 -0.12956,0.390992 -0.226726,0.775032 -0.296133,1.191474 -0.06941,0.416443 -0.111049,0.865261 -0.07866,1.251626 0.03239,0.386364 0.138812,0.710253 0.06015,0.867574 -0.07866,0.15732 -0.342401,0.148067 -0.504349,0.02545 -0.161948,-0.122618 -0.222099,-0.358596 -0.178141,-0.592267 0.04396,-0.23367 0.192023,-0.465019 0.282251,-0.701003 0.09023,-0.235983 0.122618,-0.476587 0.171203,-0.738019 0.04859,-0.261432 0.113363,-0.543679 0.157321,-0.75884 0.04396,-0.21516 0.06709,-0.363225 0.157325,-0.559879 0.09023,-0.196653 0.247547,-0.441882 0.372479,-0.645476 0.124933,-0.203593 0.217473,-0.365538 0.263744,-0.446513 0.04627,-0.08097 0.04627,-0.08098 -0.03471,0.117988 z"
       id="path39"
       inkscape:path-effect="#path-effect39"
       inkscape:original-d="m 17.126537,52.094276 c -0.161948,0.397931 -0.323896,0.795859 -0.485844,1.193787 -0.09717,0.384056 -0.194337,0.768096 -0.291506,1.152144 -0.04164,0.448837 -0.08329,0.897655 -0.124931,1.346481 0.106425,0.323903 0.212846,0.647792 0.319269,0.971687 -0.263749,-0.0093 -0.527488,-0.01852 -0.791231,-0.02776 -0.06015,-0.235984 -0.120305,-0.471961 -0.180457,-0.707943 0.14807,-0.231359 0.296134,-0.462708 0.4442,-0.694062 0.03239,-0.240613 0.06478,-0.481217 0.09717,-0.721823 0.06478,-0.282258 0.129558,-0.564505 0.194337,-0.846757 0.02314,-0.148069 0.04627,-0.296135 0.06941,-0.444201 0.157325,-0.24524 0.314642,-0.490469 0.471963,-0.735706 0.09254,-0.161951 0.185083,-0.323895 0.277625,-0.485844 z" /><path
       style="opacity:1;fill:#aee563;fill-opacity:1;stroke:#265118;stroke-width:0.1;stroke-dasharray:none;stroke-opacity:1"
       d="m 13.552117,54.729401 c 0.05321,0.04858 0.224414,0.233667 0.372481,0.576076 0.148068,0.34241 0.272996,0.842123 0.282249,1.267818 0.0093,0.425695 -0.09717,0.777347 -0.219786,0.9231 -0.122619,0.145752 -0.261429,0.0856 -0.303072,-0.117994 -0.04164,-0.203596 0.01388,-0.55062 0.07635,-0.853697 0.06247,-0.303076 0.131871,-0.562188 0.111048,-0.832873 -0.02082,-0.270686 -0.131871,-0.552933 -0.219787,-0.738019 -0.08792,-0.185086 -0.152691,-0.272995 -0.09948,-0.224411 z"
       id="path40"
       inkscape:path-effect="#path-effect40"
       inkscape:original-d="m 13.434126,54.592901 c 0.171202,0.185084 0.342404,0.370168 0.513606,0.555249 0.124933,0.499737 0.249862,0.99945 0.374793,1.499177 -0.106425,0.351663 -0.212845,0.703315 -0.319268,1.054973 -0.138816,-0.06015 -0.277625,-0.120303 -0.416438,-0.180456 0.05553,-0.347038 0.11105,-0.694063 0.166575,-1.041093 0.06941,-0.259123 0.138813,-0.518235 0.208219,-0.777349 -0.111052,-0.282257 -0.2221,-0.564504 -0.33315,-0.846757 -0.06478,-0.08792 -0.129558,-0.175828 -0.194337,-0.263744 z"
       transform="translate(0,-0.08328747)" /><path
       style="opacity:1;fill:#aee563;fill-opacity:1;stroke:#265118;stroke-width:0.1;stroke-dasharray:none;stroke-opacity:1"
       d="m 14.516863,57.144736 c -0.02776,0.09485 -0.08329,0.284567 -0.03008,0.393303 0.05321,0.108737 0.215159,0.1365 0.28225,0.07172 0.06709,-0.06478 0.03933,-0.222098 -0.0093,-0.377108 -0.04859,-0.15501 -0.117989,-0.307697 -0.157319,-0.337772 -0.03933,-0.03007 -0.04858,0.06246 -0.05321,0.108734 -0.0046,0.04627 -0.0046,0.04627 -0.03239,0.141123 z"
       id="path41"
       inkscape:path-effect="#path-effect41"
       inkscape:original-d="m 14.544625,57.049883 c -0.05552,0.189708 -0.11105,0.37942 -0.166575,0.569129 0.161951,0.02776 0.323896,0.05553 0.485844,0.08329 -0.02776,-0.157324 -0.05552,-0.314642 -0.08329,-0.471961 -0.06941,-0.152699 -0.138812,-0.305387 -0.208218,-0.458081 -0.0093,0.09254 -0.01851,0.185081 -0.02776,0.277625 z" /></g></svg>
